<?xml version="1.0" standalone="no"?>
<!DOCTYPE svg PUBLIC "-//W3C//DTD SVG 20010904//EN"
 "http://www.w3.org/TR/2001/REC-SVG-20010904/DTD/svg10.dtd">
<svg version="1.0" xmlns="http://www.w3.org/2000/svg"
 width="180px" height="20px" viewBox="0 0 874.000000 288.000000"
 preserveAspectRatio="xMidYMid meet">
<metadata>
Created by potrace 1.16, written by Peter Selinger 2001-2019
</metadata>
<g transform="translate(0.000000,288.000000) scale(0.2,-0.2)"
fill="#fff" stroke="none">
<path d="M1 2273 c1 -412 4 -597 11 -573 27 99 34 118 51 150 47 84 108 135
202 167 51 17 72 19 135 12 41 -4 100 -15 130 -24 30 -9 74 -20 97 -25 23 -5
66 -16 95 -25 53 -16 113 -33 210 -60 29 -8 78 -21 108 -29 30 -9 91 -25 135
-37 44 -12 112 -30 150 -41 39 -11 86 -24 105 -28 19 -5 51 -13 70 -18 19 -6
61 -17 93 -26 31 -9 83 -23 115 -32 31 -9 81 -22 110 -30 28 -8 78 -21 110
-30 31 -8 79 -21 107 -27 102 -24 152 -112 148 -261 -3 -102 -25 -167 -70
-206 -35 -31 -36 -31 -122 -25 -47 3 -108 8 -136 10 -27 3 -90 7 -140 11 -49
3 -117 7 -150 9 -63 4 -116 8 -280 22 -55 4 -107 7 -115 6 -8 -1 -82 5 -165
12 -82 8 -202 17 -265 20 -349 16 -471 34 -534 79 -98 71 -186 204 -186 283 0
21 -5 45 -10 53 -6 10 -10 -269 -10 -797 l0 -813 4370 0 4370 0 0 1440 0 1440
-2602 -1 c-1432 -1 -2596 -3 -2588 -5 8 -3 478 -126 1043 -273 727 -191 1038
-276 1061 -292 37 -25 65 -70 72 -116 6 -41 -233 -1877 -251 -1928 -9 -23 -31
-53 -52 -70 l-38 -30 -1110 2 c-1231 3 -1163 -1 -1224 68 -16 19 -34 50 -40
69 -7 28 23 283 148 1239 91 690 164 1215 172 1232 24 50 81 87 146 95 32 4
-737 8 -1709 9 l-1768 1 1 -607z m8593 156 c104 -49 148 -132 128 -241 -14
-76 -44 -120 -141 -205 -42 -37 -98 -88 -126 -114 -103 -95 -193 -176 -275
-249 -46 -41 -88 -79 -95 -85 -6 -5 -33 -30 -61 -55 -168 -151 -244 -224 -242
-230 3 -7 89 -106 188 -215 30 -33 136 -152 235 -265 99 -112 219 -247 266
-300 114 -127 124 -145 124 -246 0 -74 -3 -84 -29 -118 -41 -54 -124 -91 -199
-88 -107 4 -194 53 -272 153 -27 35 -99 127 -160 204 -282 356 -451 570 -461
584 -10 13 -21 7 -70 -39 -164 -149 -357 -324 -442 -399 -93 -82 -96 -83 -138
-78 -59 6 -88 28 -124 90 -23 41 -30 64 -30 109 0 31 4 68 9 82 6 13 106 123
223 243 118 120 236 242 262 270 l49 53 -29 36 c-16 20 -38 48 -49 63 -11 15
-55 71 -97 124 -75 93 -176 221 -265 335 -45 57 -59 107 -48 172 9 55 63 130
113 158 63 35 104 20 178 -66 32 -37 78 -90 104 -117 53 -59 152 -170 275
-310 48 -55 91 -101 94 -103 6 -2 251 243 596 598 99 102 196 197 215 212 79
59 212 76 294 37z"/>
<path d="M3709 2088 c0 -13 -44 -356 -98 -763 -62 -475 -93 -741 -87 -742 42
-9 1669 -73 1675 -67 8 9 175 1274 169 1279 -5 5 -1618 315 -1639 315 -13 0
-19 -7 -20 -22z"/>
</g>
</svg>
