<?xml version="1.0" encoding="utf-8"?>
<!-- Generator: Adobe Illustrator 23.0.1, SVG Export Plug-In . SVG Version: 6.00 Build 0)  -->
<svg version="1.1" id="Layer_1" xmlns="http://www.w3.org/2000/svg" xmlns:xlink="http://www.w3.org/1999/xlink" x="0px" y="0px"
	 viewBox="0 0 1757.6 1760.7" style="enable-background:new 0 0 1757.6 1760.7;" xml:space="preserve">
<style type="text/css">
	.st0{fill:#FFFF00;}
	.st1{fill:#FFFFFF;}
	.st2{opacity:0.18;fill:#54343F;enable-background:new    ;}
	.st3{fill:#A3A2A2;}
	.st4{fill:#B7A99A;}
	.st5{fill:#BCBB99;}
	.st6{fill:none;stroke:#0C0CAA;stroke-width:3;stroke-miterlimit:10;}
	.st7{fill:none;stroke:#FFFFFF;stroke-width:20;stroke-miterlimit:10;}
	.st8{fill:none;stroke:#FFFFFF;stroke-width:18;stroke-miterlimit:10;}
	.st9{fill:#DDB907;stroke:#020202;stroke-width:2;stroke-miterlimit:10;}
</style>
<path class="st0" d="M492.6,250.5c-11,44.7-14.7,139.3-25.7,198.2c-3.7,19.6-8.7,47.4-11.6,57.3c-14.7,50.4,34,62,46.5,121.3
	c8.1,140.5,16.5,161.3,26.7,200.7c4,15.4,6,77.8-48.1,67.4c-331.3-5.1-474.1-26.9-439.5,79.2c18.9,58,247.6,11,255.3,71.5
	c7.1,55.7-226.7,126.2-134.8,229.8c73.5,69.4,171.9-73.1,214.8,88.3c28.9,108.5,139.1,116,161.7,112.5
	c108.1-16.7,331.1-101,409.2-0.7c97.4,125.2,341.3-532.3,509.6-289c20.8,30.1,342.7-128.9,277.4-278.3
	c-35.5-81.3-463.1-96.3-443.4-174.2c15.5-60.9,58.9-91.8,67.4-136.3c47.5-90.4,42.9-173.1-27.6-228.3
	c-96.8-75.7,15.4-150.7-218.7-314c-143.2-99.8-405.3-43-538.3,55.7C541.8,135.1,502.2,211.5,492.6,250.5z"/>
<path id="faceCover" class="st1" d="M558.4,301.6c49.1-72.2,279.7-160.3,325.3-111.9c45.6,48.3-7.9,38.4,69.2,74.4
	c88.4,16.6,169.8,52.2,169.4,122.6c4.8,61.4-13.5,148.6,0,191.3c13.5,42.7-38.9-21.2,37.8-84.9s104.4-104.6,132.7-58.5
	c28.2,46.2,48.2,61.8,21.3,126.3c-26.9,64.5-54.4,43.1-71.4,117.5s-53.4,63.4-16.3,179.3s73.1,60,34.9,202.9
	s-151.1,592.9-247.1,594.7s-51.8,18.2-112.3-43.2c-60.5-61.3-269.2-274.6-285.7-439.6c0,0,12.9-166.8,29.3-179.4
	c0,0-62.6-150.1-73.1-213.1S556,629.3,556.1,617c0.1-12.2-37.7-107-37.7-107s-13.7,43.7-3.2,22.5S524.6,351.3,558.4,301.6z"/>
<path id="face" class="st2" d="M558.4,301.6c49.1-72.2,279.7-160.3,325.3-111.9c45.6,48.3-7.9,38.4,69.2,74.4
	c88.4,16.6,169.8,52.2,169.4,122.6c4.8,61.4-13.5,148.6,0,191.3c13.5,42.7-38.9-21.2,37.8-84.9s104.4-104.6,132.7-58.5
	c28.2,46.2,48.2,61.8,21.3,126.3c-26.9,64.5-54.4,43.1-71.4,117.5s-53.4,63.4-16.3,179.3s73.1,60,34.9,202.9
	s-151.1,592.9-247.1,594.7s-51.8,18.2-112.3-43.2c-60.5-61.3-269.2-274.6-285.7-439.6c0,0,12.9-166.8,29.3-179.4
	c0,0-62.6-150.1-73.1-213.1S556,629.3,556.1,617c0.1-12.2-37.7-107-37.7-107s-13.7,43.7-3.2,22.5S524.6,351.3,558.4,301.6z"/>
<path class="st3" d="M554.1,901.2c-7.4-1.1-9.5-40.7-1.8-77.8c2.4-11.4,16.5-56.3,63.5-84.2c27.5-16.3,80.7-35.1,115.2-17.1
	c10.5,5.5,31.2,20.7,56.2,15.9c2.6-0.5,2.5,0,5.1-1.3c18.8-9.2,56.1-1.6,82.6,31.6c12.3,15.4,9.2,5,5.8,37.2c-0.4,3.9-2,5.6-3.1,7
	c-7.2,9.7-25.8,8.4-34.6,7.6c-37.7-3.7-57.3-16.5-95.1-24.3c-34.9-7.2-74.6-8-74.6-8s-19.1,21.9-40.9,23
	c-11.3,0.6-13.6-4.9-22.3-3.4c-13.7,2.4-22.3,18.6-27.4,32.3c-2.1,9.8-6.1,24.1-14.1,40.2C561.9,893.2,557.7,901.7,554.1,901.2z"/>
<path class="st4" d="M1425.6,693.2c127.3,138.5,291.4,464.7,84.4,745s-981.2,442.9-1025.1,188.1c-20.6-119.7,354.5-170.7,379.6-307
	c18.6-100.6-208.2-251.8-3.5-352.8c66-32.6,353.4,6.4,245.4-162.7C932,531.2,1295.5,551.6,1425.6,693.2z"/>
<path class="st5" d="M547.4,284c2.1-44.1,58.8-106.1,102-144c49-43,435-196,583,153c18,65,29.8,73.8,9.4,106.9s-89.4,59.1-90.4,83.1
	s-20,121-29,55.5s-12.5-112.5-26-160.3c-44.7-157.9-146.3-76.1-168.5-71.9C921,293,900.3,151.8,747.4,189
	C644.3,214.1,546.5,303.9,547.4,284z"/>
<path class="st1" d="M753.3,542.8c3.9,1.7,16.3,0.6,22.7-1.2c62.9-17.7,211.1-62.8,61.8-67.9C728.2,466,701.3,506.8,753.3,542.8z"/>
<path class="st1" d="M533.4,586.8c7.5-15.8,17.4-16.8,30.2-21.2c29-10,55.3,3.4,70.7,4c22.6,22.9-24.3,27.7-69.4,47.4
	C532.7,617.1,533.4,586.8,533.4,586.8z"/>
<path class="st3" d="M804.3,508.4c0,12.3-17.3,24-29.6,24s-23.9-18.6-23.9-30.9c0-12.3,24.4-25.3,36.7-25.3S804.3,496.1,804.3,508.4
	z"/>
<path class="st3" d="M592.4,600.3c0,12.3-16.9,16.7-29.3,16.7s-28.4-12.5-28.4-24.8s19.5-24.8,31.9-24.8S592.4,588,592.4,600.3z"/>
<path class="st6" d="M114.4,949.6l387.4,2.1c24,0.1,36.9,28.3,21.3,46.5c-111.3,129.6-280,269.5-311.5,225.2
	c-34.9-49.1,229.2-176.8,314.9-113.9c60.6,44.5-12.7,242.8-64.3,293.9c-38.6,38.2,45.3-248.2,112.4-244.4
	c56.1,3.2,118.2,298.8,132.8,181.1c7.3-58.7-29.2-181.6-17.4-192c23.7-20.9,18.7,116.2,55.1,218.6c41.9,117.6,124.2,207,125.6,254.3
	c1,32.4-62.9-60.5-128.7-178.6c-80.9-145.3-164.7-328.7-133.8-363.7c7.6-8.6,41.9-9.2,36.8-27.6c-5.1-18.4,0.4-58.2,0.4-58.2
	s29.8,21,31.2,24.5c5.4,12.8-17.6,38.3-19.4,52.1c-1.1,8.3,2.4,26.5,8.2,32.7c4,4.3,16.9,5.2,22.5,7.1c7.2,2.5,22.9,4.2,19.7-2.7
	c-3.7-8-17.9-10.6-21.7-34c-4.5-27.4,12-63.5,18.4-47c4.2,10.8,53.6,23.5,46.5,33.6c-20.6,29.6-83.3,24.8-42.9-5.6
	c19.4-14.6,22.9,15.8,16.2,49.9c-2.6,13.3,6.1,24.2,10.8,25.3c10.3,2.4,16.5-30.6,16.4-31.7c-4.2-32.2,24.3,12.5,53,14.4
	c10.2,0.6,18.4-23,29.6-21.4c53.9,7.4,57-24.4,26.5-28c-1.1-0.1-2.2,0.8-3.3,1.1c-98.6,25.3-122-44.3-39.5-60.9
	c7.2-1.5-0.4,17.5,18.9,22.5c36.4,9.3,44.7-14.5,35.8-19.5c-11.1-6.2-59.6,34.5-28.1,42.5c5.1,1.3,15,3.4,27.8,2
	c22.7-2.5,52.2-10.9,65.2-21.9c30.2-25.6,100.2-39.1,131.7-79.7c37.1-47.7,33.4-121,32.2-121c-7.9-0.2-5.6,50.7-38.3,98
	c-26.1,37.8-79.7,72.5-116.4,86.2c-17.3,6.5-48.3,2.8-28.3-24.1c35.1-47.1-39.6-77.5-37.6-53c3.9,47-0.2,56.4-24.1,30.5
	c-19.7-21.4-46.4,26.4-57.2,26.3c-24.2-0.2-51.3,30-79.7,22.5c-19.4-5.1-56.6-11.3-72.3-31.5c-18.9-24.2-63.5-86.6,15.1-67.5
	c64.3-6.1,100.1-53.4,74.6-40.9c-23.3,11.5-142.3,51.9-123.6,24.5c6.2-9.1-23.7-12.1,2-42.9c8-9.6,27.4-5.1,43.4-15.3
	c10-6.4,52.5-9,86.8-7.9c16.4,0.5,32,0,39.3,3.8c20.7,10.7-22.6,38.1-27.6,31.7c-18.7-24,65-33.8,69-40c15.1-9-83.1-44.5-122.5-50.2
	c-8-2.1-38.2,0.3-39.1-1.4c-7.4-13.1,44.8-12.5,91.7,4.8c20.9,7.7,81.1,40.1,82.7,18.4c3.6-46.6-106.5-48.1-99.1-60.8
	c4.1-7-75.4-24-74.7-5c0.4,8.9-4,24.5-6.5,35.4c-2.2,9.6-34.8,24.1-30,10.2c1.6-9,21.4-26,21.1-31.7c-0.9-20.6-10.8-9.3-22.5,2.4
	c-9.9,9.9-30.2,32.6-14.6,34.7c8.4,1.1-6.3,11.5,1.7,12.4c26.2,2.9,34.7-18,52.5-13.8c41,0.4,129.5,25.1,139.9,40.5
	c-4.7,7.1-73.7-1-99.7-1.4c-18.3-4.4-63.7,15.6-80,19.7c-6.8-0.1-22.5,11.2-26.9,27.6c-2.5,9.3-11.7,5.1-14,3.7
	c-12.2-13.6,26.1-72.4,21.1-70.1c-1.3-3.5-13.9,9.4-15.5,12.8c-3.8,7.8-5.8,30.6-12.1,31.8c-2.4,0.5,1-34.4,1-34.4s4.9-10.5,0.4-9.1
	c-4.4,1.4-16.1-53.7-18.7-78.3c-4.3-41.2,11.5-90.3,3.3-110.7c-1.9-4.8-26.5-23.3-23.4-30.9c2.3-5.5,9.3-9,19-14.3
	c0.9-0.5,9.4-6.6,30.7-4.4c28.9,3,35.7,3.7,44.6,9.5c5.3,3.5,3.7,8.2-12.9,16.3c-8.8,4.3-31.5,8.8-35.4,15.4
	c-5.5,9.2-48.6,8.5-43.5-4.1c4.8-11.8,1.4-26,6.4-30.9c15.5-15.3,38.2,7.1,39.1,39.6c0.3,12.5,40.6-18.1,52.2-13.2
	c9.7,4.1-21.8,5.1-44.6,34c-5.1,6.5-6.8,6.2-10.7,17.6c-9,26.6-14.9,69.2-4.9,59.7c4.1-3.8,5.9-22.3,13.9-24.3
	c10-2.5,45,18.2,31.8,23.9c-3.4,1.5-23.4-13.1-31.6-11.2c-2.9,0.7-5.1,6.2-2.4,11.5c4.4,8.6,31.7,3.8,50.8,7.6
	c7.2,1.4,24.7-4.5,27.6-12c2-5.1-8.2-7.2-5.1-9.2c4.5-2.8,25.4-1.1,30.6,1.6c24.8,12.8,42.3-8.5,1-21.9
	c-26.3-8.5-40.5,27.8-43.9,23.3c-10.2-13.4,33.7-52.4,65.6-19.1c23.1,24.2,23,8,37.1,6.8c5.3-0.4,5.5,7.5-2.6,14.3
	s-24.5,12.6-22,16.9c7.6,12.9,63.9-21.1,48.4-35.2c-6.6-6-2.8-21.3-10.1-33.3c-11.3-18.4-33.6-33.1-42.2-26.5
	c-7,5.3-34,12.7-36.4,8.1c-2.9-5.5,41.5-11.3,31.7-23c-21.3-25.3-33.6-12.5-55.2-15.8c-38.7-5.9-17.1-61.7,37.7-31.6
	c61.6,33.8,18.4-19.9,51.3-17.6c0.8,0.1,1.6,0.1,2.4,0c13.2-1.1,153-49.1,131.1-60.5c-93.2-19.3-72.5,7.5-92.7-3.9
	c-7.7-4.4-15.5-31.5,6.4-35c25.1-5.5,82.7,25.4,99.6,13.3c49.8-35.8-110-12-133.8,11.7c-3.1,3.1-4.4,11.9-6.7,17.6
	c-0.8,2.1-1.8,3.7-3.1,4.4c-27.6,15.3,16,54.6,32.5,34.1c7.5-9.4,15.8-63-25.1-35.4c-9.9,10-23.8-19.1-44.1-36.5
	c-14.2-12.1-36.4-5.9-34.2-15.8c1.9-8.7,19.3-8.9,30.8-18.1s42.7-25.3,67.4-21.4c49,7.7,103.4-36,121.8-18.6c1,0.9,8.4,4.6,7.7,7.1
	c-9.1,31.1-123.5,22.3-127.1,24.5c-37.5,22.2-82.6,16.9-52.9,28.3c14.6,5.6-15.4,46.7-10.5,61.5c2.5,7.6,20.5,11.6,22,23.5
	c1.8,14.4-16.1,30.4-23,27.6c-44.4-18.4-59.7-19.9-79.7-20.7c-19.9-0.8-2.3,21.4-7.7,25.3c-12.1,8.7-26.8-26-59-8.4
	s-41.8,5.5-41.8,12.4s2.7,38.1-9.5,9s-18.4-31.4-10-51.3c8.4-19.9,71.3,0.8,93.4-6.9c8.5-3,31.6-34.2-32.9-14.7
	c-64.5,19.5-25.6-19.1-21.5-14.2c5.4,6.5-40.6,35.7-33.7,3.6c6.9-32.1,14.5-40.6,17.6-82c1.8-23.9,4-70.4,17.6-94.2
	c6.1-10.6,19.9-30.6,30.6-38.3c10.7-7.7,148.6-91.9,228.3-87.3s38.3-9.2,75.1,33.7s32,79.5,32,84.3c-0.3,24,82.5-35,121.2-7.7
	c5.8,4.1,41.9,53,65.4,144.4c13.5,52.5,3.7,27.5,8.1,80.8c3.7,44.2,18.8,119.7,30.1,175.2c7.4,36.3,29.6,63.9,12.8,68.8
	c-39.6,11.5-44.9-105.7-33.4-161.4c8.3-40.3,30.9-98.4,30.3-108.5c-3.7-62.5,42.8-61.3,33.7-84.3c-20.3-51-17.8-21-64.8-56.2
	s69.4-66.3-25.6-90.8s-145.1-14.6-156.3-35.2c-11-20.3-194.6-198.1-164.8-71.2c6,25.2-84.8-18.6-94-7.1
	c-11.2,13.9,23.1,49-44.5,56.2c-40,4.3-80.1,79-81.7,76.1c-14.7-26.4,73.5-131.9,160.9-168.6C790.1,83.7,895.7,87,938.8,89.8
	c12.1,0.8,15.2,2.7,19.1,5.6c14,10.6,23.3,52.7,50.7,44.8c38.5-11.1-43.6-27.9-31-41.7c3.7-4.1,59.9,11.6,61,12
	c51.9,19.1,100.4,48.5,133.6,94.4c52.7,72.9,74.1,145.4,31.2,98.5c-22.3-24.4-39.3-56.1-67-80.7c-37.8-33.6-138.1-76.5-189.2-73
	c-7.7,0.5-26.5,7.1-22.2,17.6c25,61.3,227.2,58.5,239.7,112.7c18.9,82,60.2,45.2,71,67.3c10.4,21.2,1.2,50.8,6.1,52.6
	c2.4,0.9-43,38.8-53.6,55.7c-13.9,22,46.8-2.6,51.8-36.5c3.9-25.9,78.4,17.1,82.7,72c4.1,52.2-24.4,144-80,187.2
	c-7.4,5.8-24,20.9-36.8,8.2c-12.8-12.8,34.2-16.3,18.4-28.1c-15.8-11.7-9.2-21.4-15.8-11.7c-6.6,9.7-3.8,10.3-6.6,9.7
	c-9.1-1.9-40.6-18-5.9-37.9s22.8-11.3,36-21.5c46.9-32.6-8.9-85.1-32.7-68.9c-11.2,2.6-2.2,28,4.1,26c10.5-3.3-25.5-40.9-1-38.8
	c24.5,2,77.7-30.2,88.9-10.3c7.5,13.2-3.8,52.5-6.7,78.2c-1.4,13,16,13.1,3.6-3.1c-28.6-37.6,13.4-110.3-25.1-110.2
	c-32.2,0.1-102.8,15.5-87.7,30.7c18.4,18.7,51-31.3,68.4-11.9s47.9,106.6,13.2,153.8c-34.7,47.2-17.4,40.9-28.6,94
	s-3.1,138.9,9.2,185.9c12.3,47,47,37.8,30.6,156.3c-3.9,28.1-15.4,73.7-31.3,127.3c-14.1,47.7-53.5,51.5-72.4,105.1
	c-49.4,139.8-85.8,326.8-112.9,341.6c-49,26.8,149.1-179.7,116.4-204.3c-32.7-24.5-255.3,181.8-143,120
	c46.5-25.6,206.1-251.3,249.7-350.8c14.7-33.5-5.8-32-25.3-25.3c-12.1,4.1-23.8,10.2-26.3,11c-51.1,16.3-14.3,81.7,4.1-16.3
	s12.3-202.2,65.4-181.8c22.8,8.8-36.7,71.2,53.3,93.9c119.1,30-14.9-145.8-14.9-145.8l229.5-6"/>
<circle class="st7" cx="1449.8" cy="1368.4" r="32"/>
<g>
	<ellipse class="st8" cx="1449.8" cy="1368.4" rx="171.7" ry="65.6"/>
	<ellipse transform="matrix(0.866 -0.5 0.5 0.866 -489.986 908.1917)" class="st8" cx="1449.7" cy="1368.4" rx="65.6" ry="171.7"/>
	<ellipse transform="matrix(0.5 -0.866 0.866 0.5 -460.231 1939.6066)" class="st8" cx="1449.7" cy="1368.4" rx="171.7" ry="65.6"/>
</g>
<path class="st9" d="M918.5,1223.4h255.6c11.5,0,20.8,9.3,20.8,20.8v255.6c0,11.5-9.3,20.8-20.8,20.8H918.5
	c-11.5,0-20.8-9.3-20.8-20.8v-255.6C897.7,1232.8,907,1223.4,918.5,1223.4z"/>
<g>
	<path d="M1066.3,1394.3h17.6v61.1c0,9.7-0.8,16.6-2.3,20.5s-4.1,7-7.6,9.4c-3.5,2.3-7.8,3.5-12.8,3.5c-10.1,0-18.8-4.4-25.9-13.3
		l12.6-11.8c2.8,3.2,5.2,5.3,7.1,6.4c2,1.1,3.9,1.6,5.7,1.6c1.9,0,3.3-0.8,4.2-2.4c0.9-1.6,1.4-5.1,1.4-10.5L1066.3,1394.3
		L1066.3,1394.3z"/>
	<path d="M1153.3,1406.8l-13,11.5c-4.6-6.3-9.2-9.5-13.9-9.5c-2.3,0-4.2,0.6-5.6,1.8c-1.5,1.2-2.2,2.6-2.2,4.2s0.5,3,1.6,4.4
		c1.4,1.8,5.7,5.8,12.9,11.8c6.7,5.6,10.7,9.1,12.2,10.6c3.6,3.6,6.1,7,7.6,10.3s2.2,6.9,2.2,10.7c0,7.6-2.6,13.8-7.8,18.7
		c-5.2,4.9-12,7.4-20.4,7.4c-6.6,0-12.3-1.6-17.1-4.8c-4.9-3.2-9-8.3-12.5-15.2l14.7-8.9c4.4,8.1,9.5,12.2,15.3,12.2
		c3,0,5.5-0.9,7.6-2.6c2-1.8,3.1-3.8,3.1-6.1c0-2.1-0.8-4.2-2.3-6.3c-1.5-2.1-5-5.3-10.2-9.6c-10-8.2-16.5-14.5-19.4-18.9
		s-4.4-8.9-4.4-13.3c0-6.4,2.4-11.9,7.3-16.4c4.9-4.6,10.9-6.9,18-6.9c4.6,0,9,1.1,13.1,3.2
		C1143.9,1397.3,1148.4,1401.2,1153.3,1406.8z"/>
</g>
</svg>
