<?xml version="1.0" encoding="utf-8"?>
<!-- Generator: Adobe Illustrator 23.0.1, SVG Export Plug-In . SVG Version: 6.00 Build 0)  -->
<svg version="1.1" id="Layer_1" xmlns="http://www.w3.org/2000/svg" xmlns:xlink="http://www.w3.org/1999/xlink" x="0px" y="0px"
	 viewBox="0 0 323.2 323.2" style="enable-background:new 0 0 323.2 323.2;" xml:space="preserve">
<style type="text/css">
	.st0{opacity:0.22;fill:#050000;enable-background:new    ;}
	.st1{fill:#FFFFFF;}
	.st2{opacity:0.13;fill:#0C0101;enable-background:new    ;}
	.st3{fill:url(#SVGID_1_);}
	.st4{opacity:0.31;fill:#050000;enable-background:new    ;}
	.st5{opacity:0.23;fill:#0A0000;enable-background:new    ;}
	.st6{opacity:8.000000e-02;fill:#070101;enable-background:new    ;}
	.st7{opacity:0.21;fill:#070000;enable-background:new    ;}
	.st8{opacity:0.15;fill:#070000;enable-background:new    ;}
	.st9{fill:#050505;}
	.st10{font-family:'Impact';}
	.st11{font-size:23.8729px;}
	.st12{font-size:65.4062px;}
	.st13{font-size:31.4921px;}
	.st14{font-size:26.637px;}
	.st15{font-size:75.8029px;}
	.st16{font-size:35.1384px;}
	.st17{fill:#FCFCFC;}
	.st18{font-size:17.2027px;}
	.st19{font-size:30.0691px;}
	.st20{fill:none;stroke:#FFFFFF;stroke-width:4;stroke-miterlimit:10;}
	.st21{font-size:14.2949px;}
</style>
<path class="st0" d="M12.5,150.7c-0.5,2.6-1.1,9.4-1.1,12c0,83.6,67.8,151.4,151.4,151.4s151.4-67.8,151.4-151.4
	S246.3,11.4,162.7,11.4c-2.7,0-4.1-0.4-6.3,1"/>
<path class="st1" d="M11.5,149.7c-0.5,2.6-1.1,9.4-1.1,12c0,83.6,67.8,151.4,151.4,151.4s151.4-67.8,151.4-151.4
	S245.3,10.4,161.7,10.4c-2.7,0-4.1-0.4-6.3,1"/>
<path class="st2" d="M139.3,29.8c7.9-1.4,16.1-2.2,24.4-2.2c75.2,0,136.1,60.9,136.1,136.1s-60.9,136.1-136.1,136.1
	S27.6,238.9,27.6,163.7c0-9.6,1-19,2.9-28"/>
<radialGradient id="SVGID_1_" cx="161.7" cy="-70.7" r="136.1" fx="118.3802" fy="-199.7217" gradientTransform="matrix(1 0 0 -1 0 92)" gradientUnits="userSpaceOnUse">
	<stop  offset="0" style="stop-color:#FF0000"/>
	<stop  offset="0.5462" style="stop-color:#FD0000"/>
	<stop  offset="0.743" style="stop-color:#F60000"/>
	<stop  offset="0.8827" style="stop-color:#EB0000"/>
	<stop  offset="0.9954" style="stop-color:#DA0000"/>
	<stop  offset="1" style="stop-color:#D90000"/>
</radialGradient>
<path class="st3" d="M137.3,28.8c7.9-1.4,16.1-2.2,24.4-2.2c75.2,0,136.1,60.9,136.1,136.1s-60.9,136.1-136.1,136.1
	S25.6,237.9,25.6,162.7c0-9.6,1-19,2.9-28"/>
<path class="st4" d="M160.6,10.7c-1.6,1-25.5,47.3-61.4,81.7c-38.6,36.9-88,59.4-88,59.4C7.6,148.7,152.1,7.8,160.6,10.7z"/>
<path class="st5" d="M156.7,10.6c-3.3,1.9-8.8,7.3-10.5,10.2c-10.9,18.9-22,53-43.3,75.2c-22.1,22.9-58.1,32.8-79.4,43.5
	c-3.4,1.7-13,10.5-13,10.5C7.1,146.9,148.5,7.8,156.7,10.6z"/>
<path class="st6" d="M151.4,12.9c10-1.8,20.4-2.7,30.9-2.7c46.3,0-172.1,219-172.1,170.6c0-12,1.3-23.8,3.7-35.1"/>
<path class="st4" d="M174.6,10.7c-3.8,11.4-42.8,46.9-72.5,80c-38.8,43.2-84.7,92.5-91.5,77.5c-0.7-1.6-0.2-12,0.4-15
	c-3.5-2.9,143-145.8,151.2-143"/>
<path class="st1" d="M157.7,10.4c-3.3,1.9-8.8,7.3-10.5,10.2c-10.9,18.9-22,53-43.3,75.2c-22.1,22.9-58.1,32.8-79.4,43.5
	c-3.4,1.7-13,10.5-13,10.5C8.1,146.7,149.5,7.6,157.7,10.4z"/>
<path class="st7" d="M131,43.6c0.9-0.7,2.2,0.4,1.6,1.4c-5.6,9.7-23.1,35.4-32.8,45.5c-9.5,9.9-33.2,27.5-44,33
	c-1.4,0.7-2.7-1-1.7-2.1C67,105.8,116.3,54.8,131,43.6z"/>
<path class="st8" d="M122.2,59.2c0.7-0.5,1.6,0.3,1.1,1c-4.1,6.8-17,25-24.1,32.2c-7,7-24.2,19.2-32,23c-1,0.5-1.9-0.7-1.2-1.6
	C75.4,102.9,111.4,67,122.2,59.2z"/>
<text transform="matrix(1 0 0 1 89.5728 178.1948)" class="st9 st10 st11">UGX</text>
<text transform="matrix(1 0 0 1 85.521 246.4863)" class="st9 st10 st12">370</text>
<text transform="matrix(1 0 0 1 198.3728 218.6948)" class="st9 st10 st13">000</text>
<text transform="matrix(1 0 0 1 82.4758 182.4111)" class="st1 st10 st14">UGX</text>
<text transform="matrix(1 0 0 1 79.8784 250.2852)" class="st1 st10 st15">370 </text>
<text transform="matrix(1 0 0 1 199.7762 219.3111)" class="st1 st10 st16">000</text>
<text transform="matrix(1.22 0 0 1 129.0015 116.8174)" class="st17 st10 st18"> $ </text>
<text transform="matrix(1 0 0 1 146.5956 125.5177)" class="st17 st10 st19">100</text>
<line class="st20" x1="121.8" y1="133.7" x2="199.1" y2="133.4"/>
<text transform="matrix(1.0797 0 0 1 117.8247 94.2021)" class="st1 st10 st21">starting from</text>
</svg>
