<?xml version="1.0" encoding="utf-8"?>
<!-- Generator: Adobe Illustrator 26.0.3, SVG Export Plug-In . SVG Version: 6.00 Build 0)  -->
<svg version="1.1" id="Layer_1" xmlns="http://www.w3.org/2000/svg" xmlns:xlink="http://www.w3.org/1999/xlink" x="0px" y="0px"
	 viewBox="0 0 323.2 323.2" style="enable-background:new 0 0 323.2 323.2;" xml:space="preserve">
<style type="text/css">
	.st0{opacity:0.22;fill:#050000;enable-background:new    ;}
	.st1{fill:#FFFFFF;}
	.st2{opacity:0.13;fill:#0C0101;enable-background:new    ;}
	.st3{fill:url(#SVGID_1_);}
	.st4{opacity:0.31;fill:#050000;enable-background:new    ;}
	.st5{opacity:0.23;fill:#0A0000;enable-background:new    ;}
	.st6{opacity:8.000000e-02;fill:#070101;enable-background:new    ;}
	.st7{fill:#FFF200;}
	.st8{opacity:0.21;fill:#070000;enable-background:new    ;}
	.st9{opacity:0.15;fill:#070000;enable-background:new    ;}
</style>
<path class="st0" d="M12.5,150.7c-0.5,2.6-1.1,9.4-1.1,12c0,83.6,67.8,151.4,151.4,151.4s151.4-67.8,151.4-151.4
	S246.3,11.4,162.7,11.4c-2.7,0-4.1-0.4-6.3,1"/>
<path class="st1" d="M11.5,149.7c-0.5,2.6-1.1,9.4-1.1,12c0,83.6,67.8,151.4,151.4,151.4s151.4-67.8,151.4-151.4
	S245.3,10.4,161.7,10.4c-2.7,0-4.1-0.4-6.3,1"/>
<path class="st2" d="M139.3,29.8c7.9-1.4,16.1-2.2,24.4-2.2c75.2,0,136.1,60.9,136.1,136.1s-60.9,136.1-136.1,136.1
	S27.6,238.9,27.6,163.7c0-9.6,1-19,2.9-28"/>
<radialGradient id="SVGID_1_" cx="161.7" cy="-824.7" r="136.1" fx="118.3802" fy="-953.7217" gradientTransform="matrix(1 0 0 -1 0 -662)" gradientUnits="userSpaceOnUse">
	<stop  offset="0" style="stop-color:#FF0000"/>
	<stop  offset="0.5462" style="stop-color:#FD0000"/>
	<stop  offset="0.743" style="stop-color:#F60000"/>
	<stop  offset="0.8827" style="stop-color:#EB0000"/>
	<stop  offset="0.9954" style="stop-color:#DA0000"/>
	<stop  offset="1" style="stop-color:#D90000"/>
</radialGradient>
<path class="st3" d="M137.3,28.8c7.9-1.4,16.1-2.2,24.4-2.2c75.2,0,136.1,60.9,136.1,136.1s-60.9,136.1-136.1,136.1
	S25.6,237.9,25.6,162.7c0-9.6,1-19,2.9-28"/>
<path class="st4" d="M160.6,10.7c-1.6,1-25.5,47.3-61.4,81.7c-38.6,36.9-88,59.4-88,59.4C7.6,148.7,152.1,7.8,160.6,10.7z"/>
<path class="st5" d="M156.7,10.6c-3.3,1.9-8.8,7.3-10.5,10.2c-10.9,18.9-22,53-43.3,75.2c-22.1,22.9-58.1,32.8-79.4,43.5
	c-3.4,1.7-13,10.5-13,10.5C7.1,146.9,148.5,7.8,156.7,10.6z"/>
<path class="st6" d="M151.4,12.9c10-1.8,20.4-2.7,30.9-2.7c46.3,0-172.1,219-172.1,170.6c0-12,1.3-23.8,3.7-35.1"/>
<path class="st4" d="M174.6,10.7c-3.8,11.4-42.8,46.9-72.5,80c-38.8,43.2-84.7,92.5-91.5,77.5c-0.7-1.6-0.2-12,0.4-15
	c-3.5-2.9,143-145.8,151.2-143"/>
<g>
	<path class="st7" d="M93.4,129.7c-1.3,0.7-3,1.1-5.1,1.1c-2.6,0-4.7-0.8-6.4-2.3c-1.6-1.6-2.4-3.6-2.4-6.1c0-2.9,0.9-5.1,2.6-6.7
		c1.7-1.6,4.1-2.5,7-2.5c1.9,0,3.3,0.3,4.4,0.8v3.9c-1.2-0.8-2.5-1.2-3.9-1.2c-1.6,0-2.9,0.5-3.9,1.5c-1,1-1.5,2.3-1.5,4
		c0,1.6,0.5,2.9,1.4,3.9c0.9,0.9,2.2,1.4,3.8,1.4c1.4,0,2.8-0.4,4.1-1.3V129.7z"/>
	<path class="st7" d="M96,122.1c0-2.7,0.8-4.9,2.5-6.5c1.7-1.6,4-2.4,6.9-2.4c2.8,0,5,0.8,6.6,2.3c1.6,1.6,2.4,3.7,2.4,6.3
		c0,2.7-0.8,4.9-2.5,6.5c-1.7,1.6-3.9,2.5-6.8,2.5c-2.8,0-5-0.8-6.7-2.4C96.9,126.9,96,124.8,96,122.1z M100.7,122
		c0,3.5,1.5,5.3,4.6,5.3c2.9,0,4.4-1.8,4.4-5.4c0-3.5-1.5-5.2-4.4-5.2c-1.4,0-2.6,0.5-3.4,1.4C101.1,119.1,100.7,120.4,100.7,122z"
		/>
	<path class="st7" d="M134.4,130.4h-4.6V121c0-2.9-1.1-4.3-3.2-4.3c-1.1,0-2,0.4-2.7,1.2c-0.7,0.8-1,1.8-1,3v9.6h-4.6v-16.8h4.6v2.7
		h0c1.3-2.1,3.2-3.1,5.7-3.1c3.9,0,5.8,2.3,5.8,6.9V130.4z"/>
	<path class="st7" d="M148.8,130.2c-0.8,0.4-1.9,0.6-3.3,0.6c-3.6,0-5.4-1.8-5.4-5.5V117h-2.9v-3.4h2.9v-3.8l4.6-1.3v5.1h4v3.4h-4
		v7.6c0,1.9,0.8,2.8,2.3,2.8c0.6,0,1.2-0.2,1.8-0.5V130.2z"/>
	<path class="st7" d="M152.4,114.7c0.8-0.4,1.8-0.8,3.1-1.1c1.3-0.3,2.4-0.4,3.4-0.4c4.7,0,7.1,2.3,7.1,6.9v10.3h-4.4v-2.5h-0.1
		c-1.2,1.9-2.9,2.9-5.2,2.9c-1.7,0-3-0.5-4-1.4c-1-0.9-1.5-2.1-1.5-3.7c0-3.2,2-5.1,6-5.6l4.9-0.6c0-2.1-1.1-3.2-3.3-3.2
		c-2.1,0-4,0.6-5.9,1.9V114.7z M158.1,122.7c-2,0.2-3,1.1-3,2.6c0,0.7,0.2,1.2,0.7,1.6c0.5,0.4,1.1,0.6,1.9,0.6c1.1,0,2-0.4,2.7-1.1
		c0.7-0.8,1.1-1.7,1.1-2.8v-1.3L158.1,122.7z"/>
	<path class="st7" d="M183.4,129.7c-1.3,0.7-3,1.1-5.1,1.1c-2.6,0-4.7-0.8-6.4-2.3c-1.6-1.6-2.4-3.6-2.4-6.1c0-2.9,0.9-5.1,2.6-6.7
		c1.7-1.6,4.1-2.5,7-2.5c1.9,0,3.3,0.3,4.4,0.8v3.9c-1.2-0.8-2.5-1.2-3.9-1.2c-1.6,0-2.9,0.5-3.9,1.5s-1.5,2.3-1.5,4
		c0,1.6,0.5,2.9,1.4,3.9c0.9,0.9,2.2,1.4,3.8,1.4c1.4,0,2.8-0.4,4.1-1.3V129.7z"/>
	<path class="st7" d="M197,130.2c-0.8,0.4-1.9,0.6-3.3,0.6c-3.6,0-5.4-1.8-5.4-5.5V117h-2.9v-3.4h2.9v-3.8l4.6-1.3v5.1h4v3.4h-4v7.6
		c0,1.9,0.8,2.8,2.3,2.8c0.6,0,1.2-0.2,1.8-0.5V130.2z"/>
	<path class="st7" d="M239.1,130.4h-4.6v-9.6c0-2.8-1-4.1-3.1-4.1c-1,0-1.8,0.4-2.4,1.3c-0.6,0.8-1,1.8-1,3v9.5h-4.6v-9.8
		c0-2.6-1-4-3.1-4c-1,0-1.8,0.4-2.4,1.2c-0.6,0.8-0.9,1.8-0.9,3.1v9.4h-4.6v-16.8h4.6v2.7h0c1.3-2,3.2-3.1,5.6-3.1
		c2.5,0,4.1,1.1,5,3.2c1.3-2.2,3.3-3.2,5.8-3.2c3.8,0,5.7,2.3,5.7,6.8V130.4z"/>
	<path class="st7" d="M258.9,123.3h-11.7c0.2,2.9,1.9,4.3,5.1,4.3c1.9,0,3.7-0.5,5.2-1.5v3.4c-1.6,0.9-3.7,1.4-6.2,1.4
		c-2.7,0-4.8-0.8-6.3-2.3c-1.5-1.5-2.3-3.6-2.3-6.3c0-2.7,0.8-4.8,2.4-6.5c1.6-1.7,3.7-2.5,6.1-2.5s4.3,0.7,5.7,2.2
		c1.4,1.4,2,3.4,2,5.9V123.3z M254.5,120.3c0-2.7-1.1-4-3.4-4c-1,0-1.8,0.4-2.5,1.1c-0.7,0.7-1.2,1.7-1.4,2.9H254.5z"/>
	<path class="st7" d="M126.2,148.3c-0.6-0.3-1.3-0.4-1.9-0.4c-1.8,0-2.7,1-2.7,3v2h4v3.4h-4v13.4h-4.6v-13.4h-3v-3.4h3v-2.3
		c0-1.9,0.6-3.4,1.8-4.5c1.2-1.1,2.9-1.7,4.9-1.7c1.1,0,1.9,0.1,2.5,0.3V148.3z"/>
	<path class="st7" d="M127.2,161.4c0-2.7,0.8-4.9,2.5-6.5c1.7-1.6,4-2.4,6.9-2.4c2.8,0,5,0.8,6.6,2.3c1.6,1.6,2.4,3.7,2.4,6.3
		c0,2.7-0.8,4.9-2.5,6.5c-1.7,1.6-3.9,2.5-6.8,2.5c-2.8,0-5-0.8-6.7-2.4C128.1,166.2,127.2,164.1,127.2,161.4z M131.9,161.3
		c0,3.5,1.5,5.3,4.6,5.3c2.9,0,4.4-1.8,4.4-5.4c0-3.5-1.5-5.2-4.4-5.2c-1.4,0-2.6,0.5-3.4,1.4C132.3,158.3,131.9,159.7,131.9,161.3z
		"/>
	<path class="st7" d="M160.1,157c-0.6-0.4-1.4-0.5-2.2-0.5c-1.2,0-2.1,0.5-2.8,1.4c-0.7,0.9-1,2.1-1,3.7v8.2h-4.6v-16.8h4.6v3.2h0
		c0.9-2.3,2.4-3.5,4.6-3.5c0.6,0,1.1,0.1,1.4,0.2V157z"/>
	<path class="st7" d="M184.6,169.5c-0.8,0.4-1.9,0.6-3.3,0.6c-3.6,0-5.4-1.8-5.4-5.5v-8.3h-2.9v-3.4h2.9v-3.8l4.6-1.3v5.1h4v3.4h-4
		v7.6c0,1.9,0.8,2.8,2.3,2.8c0.6,0,1.2-0.2,1.8-0.5V169.5z"/>
	<path class="st7" d="M204,169.7h-4.6v-9.6c0-2.8-1.1-4.2-3.2-4.2c-1.1,0-2,0.4-2.7,1.2c-0.7,0.8-1,1.8-1,3v9.6h-4.6v-24.9h4.6v10.6
		h0c1.3-2,3.2-3,5.5-3c3.9,0,5.9,2.3,5.9,6.9V169.7z"/>
	<path class="st7" d="M223.8,162.5h-11.7c0.2,2.9,1.9,4.3,5.1,4.3c1.9,0,3.7-0.5,5.2-1.5v3.4c-1.6,0.9-3.7,1.4-6.2,1.4
		c-2.7,0-4.8-0.8-6.3-2.3c-1.5-1.5-2.3-3.6-2.3-6.3c0-2.7,0.8-4.8,2.4-6.5c1.6-1.7,3.7-2.5,6.1-2.5s4.3,0.7,5.7,2.2
		c1.4,1.4,2,3.4,2,5.9V162.5z M219.4,159.6c0-2.7-1.1-4-3.4-4c-1,0-1.8,0.4-2.5,1.1c-0.7,0.7-1.2,1.7-1.4,2.9H219.4z"/>
	<path class="st1" d="M82,209v-23.5h8.3c2.5,0,4.5,0.5,5.9,1.4s2.1,2.3,2.1,4c0,1.3-0.4,2.4-1.2,3.3c-0.8,1-2,1.7-3.4,2.1v0
		c1.7,0.2,3.1,0.8,4.1,1.9c1,1,1.5,2.3,1.5,3.8c0,2.1-0.8,3.8-2.4,5.1c-1.6,1.3-3.7,1.9-6.3,1.9H82z M86.7,188.9v6.2h2.6
		c1.3,0,2.3-0.3,3-0.9c0.7-0.6,1.1-1.4,1.1-2.5c0-1.9-1.4-2.8-4.2-2.8H86.7z M86.7,198.6v6.8H90c1.4,0,2.5-0.3,3.3-0.9
		c0.8-0.6,1.2-1.5,1.2-2.6c0-2.2-1.5-3.3-4.6-3.3H86.7z"/>
	<path class="st1" d="M118.4,201.8h-11.7c0.2,2.9,1.9,4.3,5.1,4.3c1.9,0,3.7-0.5,5.2-1.5v3.4c-1.6,0.9-3.7,1.4-6.2,1.4
		c-2.7,0-4.8-0.8-6.3-2.3c-1.5-1.5-2.3-3.6-2.3-6.3c0-2.7,0.8-4.8,2.4-6.5c1.6-1.7,3.7-2.5,6.1-2.5c2.4,0,4.3,0.7,5.7,2.2
		s2,3.4,2,5.9V201.8z M114,198.9c0-2.7-1.1-4-3.4-4c-1,0-1.8,0.4-2.5,1.1c-0.7,0.7-1.2,1.7-1.4,2.9H114z"/>
	<path class="st1" d="M121.3,204.7c1.7,1,3.4,1.6,5.1,1.6c2.2,0,3.3-0.6,3.3-1.8c0-0.8-0.9-1.5-2.6-2.1c-2.5-0.8-4.1-1.6-4.8-2.4
		c-0.7-0.8-1-1.8-1-3c0-1.6,0.7-2.9,2.1-3.8c1.4-0.9,3.1-1.4,5.3-1.4c1.5,0,3,0.2,4.5,0.7v3.6c-1.4-0.8-2.9-1.2-4.5-1.2
		c-0.9,0-1.5,0.2-2.1,0.5c-0.5,0.3-0.8,0.7-0.8,1.2c0,0.8,0.7,1.5,2.2,2c1.7,0.6,2.9,1.1,3.6,1.4c0.8,0.4,1.4,0.9,1.8,1.6
		c0.4,0.7,0.6,1.5,0.6,2.4c0,1.7-0.7,3-2.1,4c-1.4,0.9-3.3,1.4-5.6,1.4c-2,0-3.7-0.3-5.2-0.9V204.7z"/>
	<path class="st1" d="M147.5,208.8c-0.8,0.4-1.9,0.6-3.3,0.6c-3.6,0-5.4-1.8-5.4-5.5v-8.3h-2.9v-3.4h2.9v-3.8l4.6-1.3v5.1h4v3.4h-4
		v7.6c0,1.9,0.8,2.8,2.3,2.8c0.6,0,1.2-0.2,1.8-0.5V208.8z"/>
	<path class="st1" d="M163.2,209v-23.5h8.1c8.7,0,13,3.8,13,11.5c0,3.6-1.2,6.6-3.7,8.8s-5.6,3.3-9.4,3.3H163.2z M167.9,189.2v16h3
		c2.6,0,4.7-0.7,6.2-2.2c1.5-1.5,2.2-3.5,2.2-6c0-2.5-0.7-4.4-2.2-5.8c-1.5-1.3-3.5-2-6.1-2H167.9z"/>
	<path class="st1" d="M203.3,201.8h-11.7c0.2,2.9,1.9,4.3,5.1,4.3c1.9,0,3.7-0.5,5.2-1.5v3.4c-1.6,0.9-3.7,1.4-6.2,1.4
		c-2.7,0-4.8-0.8-6.3-2.3c-1.5-1.5-2.3-3.6-2.3-6.3c0-2.7,0.8-4.8,2.4-6.5c1.6-1.7,3.7-2.5,6.1-2.5s4.3,0.7,5.7,2.2
		c1.4,1.4,2,3.4,2,5.9V201.8z M198.9,198.9c0-2.7-1.1-4-3.4-4c-1,0-1.8,0.4-2.5,1.1c-0.7,0.7-1.2,1.7-1.4,2.9H198.9z"/>
	<path class="st1" d="M207.2,193.2c0.8-0.4,1.8-0.8,3.1-1.1c1.3-0.3,2.4-0.4,3.4-0.4c4.7,0,7.1,2.3,7.1,6.9V209h-4.4v-2.5h-0.1
		c-1.2,1.9-2.9,2.9-5.2,2.9c-1.7,0-3-0.5-4-1.4c-1-0.9-1.5-2.1-1.5-3.7c0-3.2,2-5.1,6-5.6l4.9-0.6c0-2.1-1.1-3.2-3.3-3.2
		c-2.1,0-4,0.6-5.9,1.9V193.2z M212.9,201.3c-2,0.2-3,1.1-3,2.6c0,0.7,0.2,1.2,0.7,1.6c0.5,0.4,1.1,0.6,1.9,0.6c1.1,0,2-0.4,2.7-1.1
		c0.7-0.8,1.1-1.7,1.1-2.8v-1.3L212.9,201.3z"/>
	<path class="st1" d="M225.3,209v-24.9h4.6V209H225.3z"/>
	<path class="st1" d="M234.1,204.7c1.7,1,3.4,1.6,5.1,1.6c2.2,0,3.3-0.6,3.3-1.8c0-0.8-0.9-1.5-2.6-2.1c-2.5-0.8-4.1-1.6-4.8-2.4
		c-0.7-0.8-1-1.8-1-3c0-1.6,0.7-2.9,2.1-3.8s3.1-1.4,5.3-1.4c1.5,0,3,0.2,4.5,0.7v3.6c-1.4-0.8-2.9-1.2-4.5-1.2
		c-0.9,0-1.5,0.2-2.1,0.5c-0.5,0.3-0.8,0.7-0.8,1.2c0,0.8,0.7,1.5,2.2,2c1.7,0.6,2.9,1.1,3.6,1.4c0.8,0.4,1.4,0.9,1.8,1.6
		c0.4,0.7,0.6,1.5,0.6,2.4c0,1.7-0.7,3-2.1,4c-1.4,0.9-3.3,1.4-5.6,1.4c-2,0-3.7-0.3-5.2-0.9V204.7z"/>
	<path class="st1" d="M250.7,206.9c0-0.7,0.3-1.3,0.8-1.8c0.5-0.5,1.2-0.7,2-0.7s1.4,0.2,2,0.7c0.5,0.5,0.8,1.1,0.8,1.7
		c0,0.7-0.3,1.3-0.8,1.7s-1.1,0.7-1.8,0.7c-0.9,0-1.7-0.2-2.2-0.7C251,208.1,250.7,207.6,250.7,206.9z M255.9,185.4l-0.6,16.4h-3.8
		l-0.5-16.4H255.9z"/>
</g>
<path class="st1" d="M157.7,10.4c-3.3,1.9-8.8,7.3-10.5,10.2c-10.9,18.9-22,53-43.3,75.2c-22.1,22.9-58.1,32.8-79.4,43.5
	c-3.4,1.7-13,10.5-13,10.5C8.1,146.7,149.5,7.6,157.7,10.4z"/>
<path class="st8" d="M127.9,44c0.9-0.7,2.2,0.4,1.6,1.4c-5.6,9.7-23.1,35.4-32.8,45.5c-9.5,9.9-33.2,27.5-44,33
	c-1.4,0.7-2.7-1-1.7-2.1C63.9,106.2,113.2,55.2,127.9,44z"/>
<path class="st9" d="M119.1,59.6c0.7-0.5,1.6,0.3,1.1,1c-4.1,6.8-17,25-24.1,32.2c-7,7-24.2,19.2-32,23c-1,0.5-1.9-0.7-1.2-1.6
	C72.3,103.3,108.3,67.4,119.1,59.6z"/>
</svg>
