<?xml version="1.0" encoding="utf-8"?>
<!-- Generator: Adobe Illustrator 23.0.1, SVG Export Plug-In . SVG Version: 6.00 Build 0)  -->
<svg version="1.1" id="Layer_1" xmlns="http://www.w3.org/2000/svg" xmlns:xlink="http://www.w3.org/1999/xlink" x="0px" y="0px"
	 viewBox="0 0 3906.1 550.6" style="enable-background:new 0 0 3906.1 550.6;" xml:space="preserve">
<style type="text/css">
	.st0{fill:#FFFFFF;stroke:#000000;stroke-miterlimit:10;}
	.st1{fill:#F7F703;}
</style>
<g>
	<g>
		<g>
			<path class="st0" d="M224.8,437.7c0,32.4-10.9,59.4-32.9,80.7C170,539.8,143,550.5,111,550.5c-46.4,0-83.4-18.1-111-54.2
				l30.4-35.2c24.6,28.2,50.7,42.2,78.3,42.2c18.2,0,34.3-6,48.5-18.1s21.2-27.2,21.2-45.5c0-18.5-8.4-34.8-25.2-48.8
				c-8.3-7-24.6-16.9-49-29.5c-27.8-14.6-48.2-29-61.1-43.3c-17.5-19.2-26.2-42.2-26.2-69c0-29.8,9.9-54.2,29.6-73
				c19.7-18.9,44.2-28.3,73.5-28.3c34.6,0,69.4,17.2,104.5,51.8l-31.1,32.7c-25.8-25.3-51-38-75.6-38c-15,0-28.2,5-39.7,15.1
				c-11.5,10-17.3,22.5-17.3,37.5c0,25.2,23.9,50.4,71.8,75.6c29.5,15.5,50.9,30.3,64.2,44.4C215.5,386.6,224.8,410.2,224.8,437.7z"
				/>
			<path class="st0" d="M478.4,200.3h-76.8v340.4h-49.1V200.3h-66.1v-42.6h66.1V15.5h49.1v142.2h76.8L478.4,200.3L478.4,200.3z"/>
			<path class="st0" d="M873.4,345.7c0,43.2-4,77.4-12.1,102.8c-11.1,34.5-31.3,60.9-60.5,79.2c-24.4,15.3-55,22.9-91.7,22.9
				c-72.2,0-121.1-28.7-146.7-86.2c-12.2-27-18.3-67.7-18.3-122.2V157.7h49.1v178.6c0,44.1,2.3,74.1,6.9,90
				c7.1,24.4,20.9,43.4,41.4,57c19.3,12.7,41.8,19,67.6,19c25.1,0,47-6,65.9-17.9c20-12.9,33.8-30.9,41.4-54.2
				c4.8-14.8,7.2-46.1,7.2-93.9V157.7h49.8L873.4,345.7L873.4,345.7z"/>
			<path class="st0" d="M1356.7,540.7h-48.1v-65.8c-40.8,50.5-91.1,75.7-151,75.7c-54.4,0-100.2-19.9-137.5-59.8
				c-36.9-39.2-55.3-86.7-55.3-142.6c0-55.1,18.8-102.3,56.5-141.5s83.6-58.8,137.7-58.8c62,0,111.8,26.8,149.6,80.3V9.8h48.1V540.7
				L1356.7,540.7z M1311.7,351.3c0-43.8-14.1-80.7-42.3-110.6c-28.2-30-63.7-45-106.5-45c-57.5,0-100.4,25.6-128.7,76.9
				c-13.6,24.3-20.4,50.1-20.4,77.3c0,27.2,6.8,53,20.4,77.4c13.6,24.5,31.8,43.6,54.7,57.2s47.5,20.5,73.7,20.5
				c26.5,0,51.5-6.8,75.2-20.4s41.9-32,54.7-55.1C1305.3,406.5,1311.7,380.4,1311.7,351.3z"/>
			<path class="st0" d="M1523.1,40.7c0,11.2-3.9,20.7-11.7,28.6c-7.8,7.8-17.2,11.7-28.2,11.7c-10.8,0-20.1-4-27.9-11.9
				s-11.7-17.4-11.7-28.4c0-11.2,3.8-20.8,11.5-28.7s17-11.9,28.1-11.9c11,0,20.4,4,28.2,11.9C1519.1,19.9,1523.1,29.4,1523.1,40.7z
				 M1508.2,540.7h-49.1v-383h49.1V540.7z"/>
			<path class="st0" d="M2338.7,307.7h-156.4v233h-96.2V22.9h252.5v95.7h-156.4v94.7h156.4L2338.7,307.7L2338.7,307.7z"/>
			<path class="st0" d="M2594.3,157.7l-29.4,83.1c-11-5.6-20.1-8.4-27.2-8.4c-14.5,0-26.6,9.1-36.5,27.4
				c-11,19.9-16.1,55.8-15.2,107.6l0.3,18.6v154.7h-94.1v-383h81.3v48.2c17.7-38.7,45.2-58.1,82.4-58.1
				C2568.3,147.8,2581,151.1,2594.3,157.7z"/>
			<path class="st0" d="M3013.3,540.7h-94.4v-40.5c-34.8,33.6-73.4,50.3-115.7,50.3c-52.1,0-95.4-20.4-129.9-61.3
				c-32.9-39.2-49.4-85.7-49.4-139.4c0-55.1,15.7-102,47-140.5c33.4-41.1,76.6-61.6,129.6-61.6c45.4,0,84.9,17.4,118.5,52.1v-42.2
				h94.4L3013.3,540.7L3013.3,540.7z M2923.3,348.5c0-32-9.4-58.7-28.3-79.8s-43.9-31.8-75.1-31.8c-30.6,0-55.4,11-74.5,33
				c-18.2,21.1-27.2,47.4-27.2,79c0,31.4,9.2,57.8,27.6,79.3c19.3,22.7,44.1,34,74.5,34c31.3,0,56.6-11.1,75.8-33.3
				C2914.2,407.6,2923.3,380.8,2923.3,348.5z"/>
			<path class="st0" d="M3442.5,540.7h-93.7V373c0-34.9-0.6-57.1-1.7-66.5c-3.4-28.6-11.8-48.3-25.1-59.1
				c-10.1-7.7-22.5-11.6-37.2-11.6c-40.4,0-66.2,24.5-77.5,73.5c-2.8,12-4.1,37.9-4.1,77.7v153.6h-94.4v-383h94.4v39.1
				c38.2-32.6,75.4-48.9,111.6-48.9c37.5,0,69.2,13.3,95,39.8c21.9,22.3,32.8,55.6,32.8,100L3442.5,540.7L3442.5,540.7z"/>
			<path class="st0" d="M3906.1,540.7h-117.3l-159.5-176.4v176.4h-94.8V9.9h94.8v305.9l138.9-158.1h118.2l-161.7,183.8L3906.1,540.7
				z"/>
		</g>
	</g>
</g>
<path class="st1" d="M1671.6,474.8c-38.9-36.7-63.1-88.8-63.1-146.4c0-111.2,90.1-201.3,201.3-201.3c69.5,0,130.7,35.2,166.9,88.8
	c22.7,52.7-15.3,139.7-81.6,196.8C1824.5,473,1723.6,501.3,1671.6,474.8z"/>
</svg>
