<?xml version="1.0" encoding="utf-8"?>
<!-- Generator: Adobe Illustrator 23.0.1, SVG Export Plug-In . SVG Version: 6.00 Build 0)  -->
<svg version="1.1" id="Layer_1" xmlns="http://www.w3.org/2000/svg" xmlns:xlink="http://www.w3.org/1999/xlink" x="0px" y="0px"
	 viewBox="0 0 3906.1 550.6" style="enable-background:new 0 0 3906.1 550.6;" xml:space="preserve">
<style type="text/css">
	.st0{fill:url(#SVGID_1_);}
	.st1{fill:url(#SVGID_2_);}
	.st2{fill:url(#SVGID_3_);}
	.st3{fill:url(#SVGID_4_);}
	.st4{fill:url(#SVGID_5_);}
	.st5{fill:url(#SVGID_6_);}
	.st6{fill:url(#SVGID_7_);}
	.st7{fill:url(#SVGID_8_);}
	.st8{fill:url(#SVGID_9_);}
	.st9{fill:url(#SVGID_10_);}
	.st10{fill:url(#SVGID_11_);}
</style>
<g>
	<g>
		<g>
			
				<radialGradient id="SVGID_1_" cx="1796.3993" cy="336.9573" r="732.8281" fx="1063.8949" fy="358.736" gradientUnits="userSpaceOnUse">
				<stop  offset="0.3849" style="stop-color:#FFFF00"/>
				<stop  offset="0.4872" style="stop-color:#FDFD01;stop-opacity:0.9253"/>
				<stop  offset="0.5274" style="stop-color:#F6F604;stop-opacity:0.896"/>
				<stop  offset="0.5566" style="stop-color:#EAEA09;stop-opacity:0.8746"/>
				<stop  offset="0.5805" style="stop-color:#D9D910;stop-opacity:0.8571"/>
				<stop  offset="0.6012" style="stop-color:#C2C219;stop-opacity:0.842"/>
				<stop  offset="0.6197" style="stop-color:#A6A625;stop-opacity:0.8286"/>
				<stop  offset="0.6365" style="stop-color:#858533;stop-opacity:0.8163"/>
				<stop  offset="0.6515" style="stop-color:#606042;stop-opacity:0.8053"/>
				<stop  offset="0.6588" style="stop-color:#4B4B4B;stop-opacity:0.8"/>
			</radialGradient>
			<path class="st0" d="M1681.3,486.7c-28.5-15-50-63.1-52.9-69.5c-2.9-6.6-15.8-38.9-15.8-76.2c0-106,85.9-191.8,191.9-191.8
				c26.3,0,48.1,5.8,57.1,8.6c38.6,12,87.6,40.9,101.5,74.4c0.5,1.2,1,2.4,1.6,3.6c30.3,61.9-5.5,143.7-67.1,199.3
				C1832.1,493.9,1735.1,516.7,1681.3,486.7z"/>
			<linearGradient id="SVGID_2_" gradientUnits="userSpaceOnUse" x1="-491.4807" y1="149.0705" x2="3681.4556" y2="1533.9216">
				<stop  offset="0" style="stop-color:#FFFFFF"/>
				<stop  offset="0.1879" style="stop-color:#FCFCFC"/>
				<stop  offset="0.3386" style="stop-color:#F2F2F2"/>
				<stop  offset="0.4764" style="stop-color:#E1E1E1"/>
				<stop  offset="0.6066" style="stop-color:#C9C9C9"/>
				<stop  offset="0.7314" style="stop-color:#AAAAAA"/>
				<stop  offset="0.8521" style="stop-color:#858585"/>
				<stop  offset="0.9675" style="stop-color:#595959"/>
				<stop  offset="1" style="stop-color:#4B4B4B"/>
			</linearGradient>
			<path class="st1" d="M224.8,437.7c0,32.4-10.9,59.4-32.9,80.7c-21.9,21.4-48.9,32.1-80.9,32.1c-46.4,0-83.4-18.1-111-54.2
				l30.4-35.2c24.6,28.2,50.7,42.2,78.3,42.2c18.2,0,34.3-6,48.5-18.1s21.2-27.2,21.2-45.5c0-18.5-8.4-34.8-25.2-48.8
				c-8.3-7-24.6-16.9-49-29.5c-27.8-14.6-48.2-29-61.1-43.3c-17.5-19.2-26.2-42.2-26.2-69c0-29.8,9.9-54.2,29.6-73
				c19.7-18.9,44.2-28.3,73.5-28.3c34.6,0,69.4,17.2,104.5,51.8l-31.1,32.7c-25.8-25.3-51-38-75.6-38c-15,0-28.2,5-39.7,15.1
				c-11.5,10-17.3,22.5-17.3,37.5c0,25.2,23.9,50.4,71.8,75.6c29.5,15.5,50.9,30.3,64.2,44.4C215.5,386.6,224.8,410.2,224.8,437.7z"
				/>
			<linearGradient id="SVGID_3_" gradientUnits="userSpaceOnUse" x1="-443.8856" y1="5.6535" x2="3729.0505" y2="1390.5045">
				<stop  offset="0" style="stop-color:#FFFFFF"/>
				<stop  offset="0.1879" style="stop-color:#FCFCFC"/>
				<stop  offset="0.3386" style="stop-color:#F2F2F2"/>
				<stop  offset="0.4764" style="stop-color:#E1E1E1"/>
				<stop  offset="0.6066" style="stop-color:#C9C9C9"/>
				<stop  offset="0.7314" style="stop-color:#AAAAAA"/>
				<stop  offset="0.8521" style="stop-color:#858585"/>
				<stop  offset="0.9675" style="stop-color:#595959"/>
				<stop  offset="1" style="stop-color:#4B4B4B"/>
			</linearGradient>
			<path class="st2" d="M478.4,200.3h-76.8v340.4h-49.1V200.3h-66.1v-42.6h66.1V15.5h49.1v142.2h76.8V200.3z"/>
			<linearGradient id="SVGID_4_" gradientUnits="userSpaceOnUse" x1="-427.2886" y1="-44.3578" x2="3745.6475" y2="1340.4933">
				<stop  offset="0" style="stop-color:#FFFFFF"/>
				<stop  offset="0.1879" style="stop-color:#FCFCFC"/>
				<stop  offset="0.3386" style="stop-color:#F2F2F2"/>
				<stop  offset="0.4764" style="stop-color:#E1E1E1"/>
				<stop  offset="0.6066" style="stop-color:#C9C9C9"/>
				<stop  offset="0.7314" style="stop-color:#AAAAAA"/>
				<stop  offset="0.8521" style="stop-color:#858585"/>
				<stop  offset="0.9675" style="stop-color:#595959"/>
				<stop  offset="1" style="stop-color:#4B4B4B"/>
			</linearGradient>
			<path class="st3" d="M873.4,345.7c0,43.2-4,77.4-12.1,102.8c-11.1,34.5-31.3,60.9-60.5,79.2c-24.4,15.3-55,22.9-91.7,22.9
				c-72.2,0-121.1-28.7-146.7-86.2c-12.2-27-18.3-67.7-18.3-122.2V157.7h49.1v178.6c0,44.1,2.3,74.1,6.9,90
				c7.1,24.4,20.9,43.4,41.4,57c19.3,12.7,41.8,19,67.6,19c25.1,0,47-6,65.9-17.9c20-12.9,33.8-30.9,41.4-54.2
				c4.8-14.8,7.2-46.1,7.2-93.9V157.7h49.8L873.4,345.7L873.4,345.7z"/>
			<linearGradient id="SVGID_5_" gradientUnits="userSpaceOnUse" x1="-358.8091" y1="-250.7053" x2="3814.127" y2="1134.1458">
				<stop  offset="0" style="stop-color:#FFFFFF"/>
				<stop  offset="0.1879" style="stop-color:#FCFCFC"/>
				<stop  offset="0.3386" style="stop-color:#F2F2F2"/>
				<stop  offset="0.4764" style="stop-color:#E1E1E1"/>
				<stop  offset="0.6066" style="stop-color:#C9C9C9"/>
				<stop  offset="0.7314" style="stop-color:#AAAAAA"/>
				<stop  offset="0.8521" style="stop-color:#858585"/>
				<stop  offset="0.9675" style="stop-color:#595959"/>
				<stop  offset="1" style="stop-color:#4B4B4B"/>
			</linearGradient>
			<path class="st4" d="M1356.7,540.7h-48.1v-65.8c-40.8,50.5-91.1,75.7-151,75.7c-54.4,0-100.2-19.9-137.5-59.8
				c-36.9-39.2-55.3-86.7-55.3-142.6c0-55.1,18.8-102.3,56.5-141.5c37.7-39.2,83.6-58.8,137.7-58.8c62,0,111.8,26.8,149.6,80.3V9.8
				h48.1L1356.7,540.7L1356.7,540.7z M1311.7,351.3c0-43.8-14.1-80.7-42.3-110.6c-28.2-30-63.7-45-106.5-45
				c-57.5,0-100.4,25.6-128.7,76.9c-13.6,24.3-20.4,50.1-20.4,77.3c0,27.2,6.8,53,20.4,77.4c13.6,24.5,31.8,43.6,54.7,57.2
				s47.5,20.5,73.7,20.5c26.5,0,51.5-6.8,75.2-20.4c23.7-13.6,41.9-32,54.7-55.1C1305.3,406.5,1311.7,380.4,1311.7,351.3z"/>
			<linearGradient id="SVGID_6_" gradientUnits="userSpaceOnUse" x1="-332.701" y1="-329.3761" x2="3840.2351" y2="1055.475">
				<stop  offset="0" style="stop-color:#FFFFFF"/>
				<stop  offset="0.1879" style="stop-color:#FCFCFC"/>
				<stop  offset="0.3386" style="stop-color:#F2F2F2"/>
				<stop  offset="0.4764" style="stop-color:#E1E1E1"/>
				<stop  offset="0.6066" style="stop-color:#C9C9C9"/>
				<stop  offset="0.7314" style="stop-color:#AAAAAA"/>
				<stop  offset="0.8521" style="stop-color:#858585"/>
				<stop  offset="0.9675" style="stop-color:#595959"/>
				<stop  offset="1" style="stop-color:#4B4B4B"/>
			</linearGradient>
			<path class="st5" d="M1523.1,40.7c0,11.2-3.9,20.7-11.7,28.6c-7.8,7.8-17.2,11.7-28.2,11.7c-10.8,0-20.1-4-27.9-11.9
				c-7.8-7.9-11.7-17.4-11.7-28.4c0-11.2,3.8-20.8,11.5-28.7c7.7-7.9,17-11.9,28.1-11.9c11,0,20.4,4,28.2,11.9
				C1519.1,19.9,1523.1,29.4,1523.1,40.7z M1508.2,540.7h-49.1v-383h49.1V540.7z"/>
			<linearGradient id="SVGID_7_" gradientUnits="userSpaceOnUse" x1="-262.9034" y1="-539.6956" x2="3910.0327" y2="845.1555">
				<stop  offset="0" style="stop-color:#FFFFFF"/>
				<stop  offset="0.1879" style="stop-color:#FCFCFC"/>
				<stop  offset="0.3386" style="stop-color:#F2F2F2"/>
				<stop  offset="0.4764" style="stop-color:#E1E1E1"/>
				<stop  offset="0.6066" style="stop-color:#C9C9C9"/>
				<stop  offset="0.7314" style="stop-color:#AAAAAA"/>
				<stop  offset="0.8521" style="stop-color:#858585"/>
				<stop  offset="0.9675" style="stop-color:#595959"/>
				<stop  offset="1" style="stop-color:#4B4B4B"/>
			</linearGradient>
			<path class="st6" d="M2338.7,307.7h-156.4v233h-96.2V22.9h252.5v95.7h-156.4v94.7h156.4L2338.7,307.7L2338.7,307.7z"/>
			<linearGradient id="SVGID_8_" gradientUnits="userSpaceOnUse" x1="-255.0248" y1="-563.4359" x2="3917.9114" y2="821.4152">
				<stop  offset="0" style="stop-color:#FFFFFF"/>
				<stop  offset="0.1879" style="stop-color:#FCFCFC"/>
				<stop  offset="0.3386" style="stop-color:#F2F2F2"/>
				<stop  offset="0.4764" style="stop-color:#E1E1E1"/>
				<stop  offset="0.6066" style="stop-color:#C9C9C9"/>
				<stop  offset="0.7314" style="stop-color:#AAAAAA"/>
				<stop  offset="0.8521" style="stop-color:#858585"/>
				<stop  offset="0.9675" style="stop-color:#595959"/>
				<stop  offset="1" style="stop-color:#4B4B4B"/>
			</linearGradient>
			<path class="st7" d="M2594.3,157.7l-29.4,83.1c-11-5.6-20.1-8.4-27.2-8.4c-14.5,0-26.6,9.1-36.5,27.4
				c-11,19.9-16.1,55.8-15.2,107.6l0.3,18.6v154.7h-94.1v-383h81.3v48.2c17.7-38.7,45.2-58.1,82.4-58.1
				C2568.3,147.8,2581,151.1,2594.3,157.7z"/>
			<linearGradient id="SVGID_9_" gradientUnits="userSpaceOnUse" x1="-216.9408" y1="-678.1934" x2="3955.9954" y2="706.6577">
				<stop  offset="0" style="stop-color:#FFFFFF"/>
				<stop  offset="0.1879" style="stop-color:#FCFCFC"/>
				<stop  offset="0.3386" style="stop-color:#F2F2F2"/>
				<stop  offset="0.4764" style="stop-color:#E1E1E1"/>
				<stop  offset="0.6066" style="stop-color:#C9C9C9"/>
				<stop  offset="0.7314" style="stop-color:#AAAAAA"/>
				<stop  offset="0.8521" style="stop-color:#858585"/>
				<stop  offset="0.9675" style="stop-color:#595959"/>
				<stop  offset="1" style="stop-color:#4B4B4B"/>
			</linearGradient>
			<path class="st8" d="M3013.3,540.7h-94.4v-40.5c-34.8,33.6-73.4,50.3-115.7,50.3c-52.1,0-95.4-20.4-129.9-61.3
				c-32.9-39.2-49.4-85.7-49.4-139.4c0-55.1,15.7-102,47-140.5c33.4-41.1,76.6-61.6,129.6-61.6c45.4,0,84.9,17.4,118.5,52.1v-42.2
				h94.4L3013.3,540.7L3013.3,540.7z M2923.3,348.5c0-32-9.4-58.7-28.3-79.8s-43.9-31.8-75.1-31.8c-30.6,0-55.4,11-74.5,33
				c-18.2,21.1-27.2,47.4-27.2,79c0,31.4,9.2,57.8,27.6,79.3c19.3,22.7,44.1,34,74.5,34c31.3,0,56.6-11.1,75.8-33.3
				C2914.2,407.6,2923.3,380.8,2923.3,348.5z"/>
			<linearGradient id="SVGID_10_" gradientUnits="userSpaceOnUse" x1="-181.3001" y1="-785.5885" x2="3991.636" y2="599.2625">
				<stop  offset="0" style="stop-color:#FFFFFF"/>
				<stop  offset="0.1879" style="stop-color:#FCFCFC"/>
				<stop  offset="0.3386" style="stop-color:#F2F2F2"/>
				<stop  offset="0.4764" style="stop-color:#E1E1E1"/>
				<stop  offset="0.6066" style="stop-color:#C9C9C9"/>
				<stop  offset="0.7314" style="stop-color:#AAAAAA"/>
				<stop  offset="0.8521" style="stop-color:#858585"/>
				<stop  offset="0.9675" style="stop-color:#595959"/>
				<stop  offset="1" style="stop-color:#4B4B4B"/>
			</linearGradient>
			<path class="st9" d="M3442.5,540.7h-93.7V373c0-34.9-0.6-57.1-1.7-66.5c-3.4-28.6-11.8-48.3-25.1-59.1
				c-10.1-7.7-22.5-11.6-37.2-11.6c-40.4,0-66.2,24.5-77.5,73.5c-2.8,12-4.1,37.9-4.1,77.7v153.6h-94.4v-383h94.4v39.1
				c38.2-32.6,75.4-48.9,111.6-48.9c37.5,0,69.2,13.3,95,39.8c21.9,22.3,32.8,55.6,32.8,100L3442.5,540.7L3442.5,540.7z"/>
			<linearGradient id="SVGID_11_" gradientUnits="userSpaceOnUse" x1="-125.0926" y1="-954.9573" x2="4047.8435" y2="429.8937">
				<stop  offset="0" style="stop-color:#FFFFFF"/>
				<stop  offset="0.1879" style="stop-color:#FCFCFC"/>
				<stop  offset="0.3386" style="stop-color:#F2F2F2"/>
				<stop  offset="0.4764" style="stop-color:#E1E1E1"/>
				<stop  offset="0.6066" style="stop-color:#C9C9C9"/>
				<stop  offset="0.7314" style="stop-color:#AAAAAA"/>
				<stop  offset="0.8521" style="stop-color:#858585"/>
				<stop  offset="0.9675" style="stop-color:#595959"/>
				<stop  offset="1" style="stop-color:#4B4B4B"/>
			</linearGradient>
			<path class="st10" d="M3906.1,540.7h-117.3l-159.5-176.4v176.4h-94.8V9.9h94.8v305.9l138.9-158.1h118.2l-161.7,183.8
				L3906.1,540.7z"/>
		</g>
	</g>
</g>
</svg>
