<?xml version="1.0" encoding="utf-8"?>
<!-- Generator: Adobe Illustrator 26.0.3, SVG Export Plug-In . SVG Version: 6.00 Build 0)  -->
<svg version="1.1" id="Layer_1" xmlns="http://www.w3.org/2000/svg" xmlns:xlink="http://www.w3.org/1999/xlink" x="0px" y="0px"
	 viewBox="0 0 342.6 343.9" style="enable-background:new 0 0 342.6 343.9;" xml:space="preserve">
<style type="text/css">
	.st0{fill:#FFFFFF;}
	.st1{fill:#048C11;}
</style>
<circle class="st0" cx="171.3" cy="171.9" r="138.1"/>
<g transform="translate(0.000000,300.000000) scale(0.100000,-0.100000)">
	<path class="st1" d="M1569,2989.6c-50.6-5.7-100-10.3-109.2-10.3c-46-3.4-225.2-48.3-317.1-80.4c-100-35.6-280.4-119.5-291.9-136.7
		c-3.4-4.6-17.2-11.5-31-16.1c-14.9-4.6-26.4-13.8-26.4-19.5c0-5.7-8-10.3-17.2-10.3c-9.2,0-17.2-4.6-17.2-11.5
		c0-5.7-6.9-11.5-13.8-11.5c-8,0-33.3-14.9-55.2-34.5c-21.8-18.4-58.6-47.1-80.4-65.5c-55.2-44.8-172.4-163.2-206.8-208
		c-16.1-20.7-37.9-47.1-48.3-57.5c-11.5-10.3-20.7-23-20.7-28.7c0-4.6-12.6-23-28.7-40.2c-16.1-17.2-32.2-41.4-35.6-54
		c-4.6-11.5-14.9-28.7-23-37.9c-9.2-8-16.1-23-16.1-32.2s-4.6-16.1-9.2-16.1c-10.3,0-94.2-168.9-98.8-197.6c-1.1-8-8-25.3-14.9-39.1
		c-23-41.4-82.7-281.5-95.4-383.8c-25.3-210.3-10.3-447,41.4-643.5c32.2-122.9,83.9-266.6,98.8-276.9c6.9-3.4,10.3-11.5,9.2-17.2
		c-2.3-17.2,37.9-96.5,48.3-96.5c5.7,0,6.9-4.6,3.4-11.5c-3.4-5.7-2.3-11.5,3.4-11.5c6.9,0,14.9-12.6,18.4-28.7
		c4.6-16.1,12.6-28.7,18.4-28.7c6.9,0,11.5-8,11.5-17.2s5.7-17.2,12.6-17.2c5.7,0,9.2-4.6,5.7-9.2c-3.4-5.7,6.9-23,23-40.2
		c14.9-16.1,27.6-34.5,27.6-39.1c0-5.7,9.2-18.4,20.7-28.7c10.3-10.3,32.2-36.8,48.3-57.5c33.3-44.8,150.5-162,208-208
		C632.5-50.8,668.1-80.6,690-99s47.1-34.5,55.2-34.5c6.9,0,13.8-4.6,13.8-11.5c0-5.7,8-11.5,17.2-11.5c9.2,0,17.2-4.6,17.2-10.3
		s11.5-14.9,26.4-19.5c13.8-4.6,27.6-11.5,31-16.1c10.3-14.9,187.3-100,273.5-131c98.8-34.5,249.3-74.7,316-82.7
		c255.1-29.9,299.9-29.9,549.2,0c85,10.3,260.8,59.8,355.1,98.8c47.1,19.5,95.4,39.1,106.9,42.5c10.3,3.4,19.5,10.3,19.5,16.1
		c0,5.7,3.4,9.2,9.2,8c18.4-5.7,209.1,108,218.3,131c2.3,4.6,11.5,9.2,20.7,9.2s19.5,8,23,17.2c4.6,9.2,12.6,17.2,19.5,17.2
		c14.9,0,24.1,8,160.9,145.9c139,140.2,145.9,148.2,145.9,160.9c0,6.9,8,14.9,17.2,19.5c9.2,3.4,17.2,13.8,17.2,24.1
		c0,9.2,5.7,17.2,11.5,17.2c6.9,0,11.5,8,11.5,17.2c0,9.2,5.7,17.2,11.5,17.2c6.9,0,11.5,4.6,11.5,11.5c0,5.7,8,20.7,17.2,31
		c9.2,11.5,17.2,25.3,16.1,31c0,5.7,3.4,13.8,9.2,17.2c10.3,5.7,101.1,179.3,105.7,198.8c1.1,4.6,9.2,26.4,18.4,48.3
		c67.8,162,110.3,397.6,110.3,615.9c0,217.2-42.5,453.9-109.2,612.4c-8,20.7-16.1,40.2-16.1,46c-4.6,20.7-97.7,197.6-106.9,201.1
		c-5.7,2.3-8,9.2-3.4,14.9c3.4,5.7,0,10.3-5.7,10.3c-6.9,0-12.6,8-12.6,17.2s-4.6,17.2-11.5,17.2c-5.7,0-11.5,8-11.5,17.2
		s-4.6,17.2-11.5,17.2c-5.7,0-11.5,8-11.5,17.2s-4.6,17.2-11.5,17.2c-5.7,0-11.5,8-11.5,17.2c0,10.3-8,20.7-17.2,24.1
		c-9.2,4.6-17.2,12.6-17.2,19.5c0,12.6-9.2,23-145.9,160.9c-139,137.9-148.2,145.9-163.2,145.9c-6.9,0-12.6,5.7-12.6,11.5
		c0,6.9-9.2,16.1-19.5,19.5c-11.5,4.6-29.9,16.1-41.4,26.4c-10.3,10.3-34.5,26.4-51.7,35.6s-33.3,19.5-36.8,23
		c-12.6,16.1-197.6,105.7-294.2,142.5c-81.6,31-242.4,72.4-314.8,81.6C1752.8,3004.6,1712.6,3005.7,1569,2989.6z M1929.3,2166.8
		c280.4-78,492-253.1,608.5-506.2c205.5-444.5,7.1-983.1-441.4-1195.7c-128.6-60.7-216.7-79-378.6-79
		c-157.9,0-249.1,18.2-367.5,73.9l-63.8,30.4l-232.9-61.8c-128.6-33.4-236.9-58.7-239.9-54.7c-4,3,6.1,52.6,21.3,109.3
		c94.2,352.3,93.1,349.3,81,378.6c-6.1,15.2-23.3,56.7-37.5,90.1c-49.6,119.5-61.8,181.2-61.8,333.1c0,206.5,39.5,336.1,152.9,507.2
		c127.6,193.4,332.1,330.1,571,383.7C1625.6,2195.2,1845.3,2190.1,1929.3,2166.8z"/>
	<path class="st1" d="M1547.7,2004c-38-8-108-34-155-56c-71-34-100-56-180-137c-54-54-111-124-133-161c-130-224-127-502,7-741l26-47
		l-35-128c-19-70-34-129-32-130c1-1,61,13,132,32l130,35l60-30c274-139,578-110,811,77c295,238,354,667,137,994
		c-122,184-334,294-588,304C1651.7,2018,1596.7,2015,1547.7,2004z M1478.7,1688c14-10,94-200,94-222c0-8-16-35-35-60
		c-19-26-35-52-35-60c0-21,82-127,131-169c54-47,137-95,176-103c26-5,33,0,72,50c27,35,51,56,63,56c35,0,217-91,224-112
		c12-37-7-100-43-139c-36-40-121-79-171-79c-82,0-250,68-356,144c-111,79-243,233-306,356c-35,67-39,180-11,241
		C1326.7,1687,1421.7,1734,1478.7,1688z"/>
</g>
</svg>
