<?xml version="1.0" standalone="no"?>
<!DOCTYPE svg PUBLIC "-//W3C//DTD SVG 20010904//EN"
 "http://www.w3.org/TR/2001/REC-SVG-20010904/DTD/svg10.dtd">
<svg version="1.0" xmlns="http://www.w3.org/2000/svg"
 width="300.000000pt" height="300.000000pt" viewBox="0 0 300.000000 300.000000"
 preserveAspectRatio="xMidYMid meet">

<g transform="translate(0.000000,300.000000) scale(0.100000,-0.100000)"
fill="#000000" stroke="none">
<path d="M1375 2988 c-44 -5 -87 -9 -95 -9 -40 -3 -196 -42 -276 -70 -87 -31
-244 -104 -254 -119 -3 -4 -15 -10 -27 -14 -13 -4 -23 -12 -23 -17 0 -5 -7 -9
-15 -9 -8 0 -15 -4 -15 -10 0 -5 -6 -10 -12 -10 -7 0 -29 -13 -48 -30 -19 -16
-51 -41 -70 -57 -48 -39 -150 -142 -180 -181 -14 -18 -33 -41 -42 -50 -10 -9
-18 -20 -18 -25 0 -4 -11 -20 -25 -35 -14 -15 -28 -36 -31 -47 -4 -10 -13 -25
-20 -33 -8 -7 -14 -20 -14 -28 0 -8 -4 -14 -8 -14 -9 0 -82 -147 -86 -172 -1
-7 -7 -22 -13 -34 -20 -36 -72 -245 -83 -334 -22 -183 -9 -389 36 -560 28
-107 73 -232 86 -241 6 -3 9 -10 8 -15 -2 -15 33 -84 42 -84 5 0 6 -4 3 -10
-3 -5 -2 -10 3 -10 6 0 13 -11 16 -25 4 -14 11 -25 16 -25 6 0 10 -7 10 -15 0
-8 5 -15 11 -15 5 0 8 -4 5 -8 -3 -5 6 -20 20 -35 13 -14 24 -30 24 -34 0 -5
8 -16 18 -25 9 -9 28 -32 42 -50 29 -39 131 -141 181 -181 19 -15 50 -41 69
-57 19 -16 41 -30 48 -30 6 0 12 -4 12 -10 0 -5 7 -10 15 -10 8 0 15 -4 15 -9
0 -5 10 -13 23 -17 12 -4 24 -10 27 -14 9 -13 163 -87 238 -114 86 -30 217
-65 275 -72 222 -26 261 -26 478 0 74 9 227 52 309 86 41 17 83 34 93 37 9 3
17 9 17 14 0 5 3 8 8 7 16 -5 182 94 190 114 2 4 10 8 18 8 8 0 17 7 20 15 4
8 11 15 17 15 13 0 21 7 140 127 121 122 127 129 127 140 0 6 7 13 15 17 8 3
15 12 15 21 0 8 5 15 10 15 6 0 10 7 10 15 0 8 5 15 10 15 6 0 10 4 10 10 0 5
7 18 15 27 8 10 15 22 14 27 0 5 3 12 8 15 9 5 88 156 92 173 1 4 8 23 16 42
59 141 96 346 96 536 0 189 -37 395 -95 533 -7 18 -14 35 -14 40 -4 18 -85
172 -93 175 -5 2 -7 8 -3 13 3 5 0 9 -5 9 -6 0 -11 7 -11 15 0 8 -4 15 -10 15
-5 0 -10 7 -10 15 0 8 -4 15 -10 15 -5 0 -10 7 -10 15 0 8 -4 15 -10 15 -5 0
-10 7 -10 15 0 9 -7 18 -15 21 -8 4 -15 11 -15 17 0 11 -8 20 -127 140 -121
120 -129 127 -142 127 -6 0 -11 5 -11 10 0 6 -8 14 -17 17 -10 4 -26 14 -36
23 -9 9 -30 23 -45 31 -15 8 -29 17 -32 20 -11 14 -172 92 -256 124 -71 27
-211 63 -274 71 -205 25 -240 26 -365 12z m339 -612 c277 -77 486 -250 601
-500 203 -439 7 -971 -436 -1181 -127 -60 -214 -78 -374 -78 -156 0 -246 18
-363 73 l-63 30 -230 -61 c-127 -33 -234 -58 -237 -54 -4 3 6 52 21 108 93
348 92 345 80 374 -6 15 -23 56 -37 89 -49 118 -61 179 -61 329 0 204 39 332
151 501 126 191 328 326 564 379 84 19 301 14 384 -9z"/>
<path d="M1335 2224 c-38 -8 -108 -34 -155 -56 -71 -34 -100 -56 -180 -137
-54 -54 -111 -124 -133 -161 -130 -224 -127 -502 7 -741 l26 -47 -35 -128
c-19 -70 -34 -129 -32 -130 1 -1 61 13 132 32 l130 35 60 -30 c274 -139 578
-110 811 77 295 238 354 667 137 994 -122 184 -334 294 -588 304 -76 2 -131
-1 -180 -12z m-69 -316 c14 -10 94 -200 94 -222 0 -8 -16 -35 -35 -60 -19 -26
-35 -52 -35 -60 0 -21 82 -127 131 -169 54 -47 137 -95 176 -103 26 -5 33 0
72 50 27 35 51 56 63 56 35 0 217 -91 224 -112 12 -37 -7 -100 -43 -139 -36
-40 -121 -79 -171 -79 -82 0 -250 68 -356 144 -111 79 -243 233 -306 356 -35
67 -39 180 -11 241 45 96 140 143 197 97z"/>
</g>
</svg>
