<?xml version="1.0" encoding="utf-8"?>
<!-- Generator: Adobe Illustrator 26.0.3, SVG Export Plug-In . SVG Version: 6.00 Build 0)  -->
<svg version="1.1" id="Layer_1" xmlns="http://www.w3.org/2000/svg" xmlns:xlink="http://www.w3.org/1999/xlink" x="0px" y="0px"
	 viewBox="0 0 391.4 392.9" style="enable-background:new 0 0 391.4 392.9;" xml:space="preserve">
<style type="text/css">
	.st0{fill:#FFFFFF;}
	.st1{fill:#048C11;}
</style>
<circle class="st0" cx="195.7" cy="196.4" r="138.1"/>
<g transform="translate(0.000000,300.000000) scale(0.100000,-0.100000)">
	<path class="st1" d="M1792.6,2988.2c-57.8-6.5-114.3-11.8-124.8-11.8c-52.6-3.9-257.3-55.2-362.3-91.9
		c-114.3-40.7-320.4-136.5-333.5-156.2c-3.9-5.3-19.7-13.1-35.4-18.4c-17-5.3-30.2-15.8-30.2-22.3c0-6.5-9.1-11.8-19.7-11.8
		s-19.7-5.3-19.7-13.1c0-6.5-7.9-13.1-15.8-13.1c-9.1,0-38-17-63.1-39.4c-24.9-21-67-53.8-91.9-74.8
		c-63.1-51.2-197-186.5-236.3-237.7c-18.4-23.7-43.3-53.8-55.2-65.7c-13.1-11.8-23.7-26.3-23.7-32.8c0-5.3-14.4-26.3-32.8-45.9
		s-36.8-47.3-40.7-61.7c-5.3-13.1-17-32.8-26.3-43.3c-10.5-9.1-18.4-26.3-18.4-36.8s-5.3-18.4-10.5-18.4
		c-11.8,0-107.6-193-112.9-225.8c-1.3-9.1-9.1-28.9-17-44.7c-26.3-47.3-94.5-321.6-109-438.5C-15.2,1043.8,2,773.4,61,548.9
		c36.8-140.4,95.9-304.6,112.9-316.4c7.9-3.9,11.8-13.1,10.5-19.7c-2.6-19.7,43.3-110.3,55.2-110.3c6.5,0,7.9-5.3,3.9-13.1
		c-3.9-6.5-2.6-13.1,3.9-13.1c7.9,0,17-14.4,21-32.8c5.3-18.4,14.4-32.8,21-32.8c7.9,0,13.1-9.1,13.1-19.7s6.5-19.7,14.4-19.7
		c6.5,0,10.5-5.3,6.5-10.5c-3.9-6.5,7.9-26.3,26.3-45.9c17-18.4,31.5-39.4,31.5-44.7c0-6.5,10.5-21,23.7-32.8
		c11.8-11.8,36.8-42,55.2-65.7c38-51.2,172-185.1,237.7-237.7c24.8-19.9,65.5-53.9,90.5-75c25-21,53.8-39.4,63.1-39.4
		c7.9,0,15.8-5.3,15.8-13.1c0-6.5,9.1-13.1,19.7-13.1s19.7-5.3,19.7-11.8s13.1-17,30.2-22.3c15.8-5.3,31.5-13.1,35.4-18.4
		c11.8-17,214-114.3,312.5-149.7c112.9-39.4,284.8-85.3,361.1-94.5c291.5-34.2,342.7-34.2,627.5,0c97.1,11.8,298,68.3,405.7,112.9
		c53.8,22.3,109,44.7,122.1,48.6c11.8,3.9,22.3,11.8,22.3,18.4c0,6.5,3.9,10.5,10.5,9.1c21-6.5,238.9,123.4,249.4,149.7
		c2.6,5.3,13.1,10.5,23.7,10.5c10.5,0,22.3,9.1,26.3,19.7c5.3,10.5,14.4,19.7,22.3,19.7c17,0,27.5,9.1,183.8,166.7
		c158.8,160.2,166.7,169.3,166.7,183.8c0,7.9,9.1,17,19.7,22.3c10.5,3.9,19.7,15.8,19.7,27.5c0,10.5,6.5,19.7,13.1,19.7
		c7.9,0,13.1,9.1,13.1,19.7s6.5,19.7,13.1,19.7c7.9,0,13.1,5.3,13.1,13.1c0,6.5,9.1,23.7,19.7,35.4c10.5,13.1,19.7,28.9,18.4,35.4
		c0,6.5,3.9,15.8,10.5,19.7c11.8,6.5,115.5,204.9,120.8,227.1c1.3,5.3,10.5,30.2,21,55.2c77.5,185.1,126,454.3,126,703.7
		c0,248.2-48.6,518.6-124.8,699.7c-9.1,23.7-18.4,45.9-18.4,52.6c-5.3,23.7-111.6,225.8-122.1,229.8c-6.5,2.6-9.1,10.5-3.9,17
		c3.9,6.5,0,11.8-6.5,11.8c-7.9,0-14.4,9.1-14.4,19.7c0,10.5-5.3,19.7-13.1,19.7c-6.5,0-13.1,9.1-13.1,19.7
		c0,10.5-5.3,19.7-13.1,19.7c-6.5,0-13.1,9.1-13.1,19.7s-5.3,19.7-13.1,19.7c-6.5,0-13.1,9.1-13.1,19.7c0,11.8-9.1,23.7-19.7,27.5
		c-10.5,5.3-19.7,14.4-19.7,22.3c0,14.4-10.5,26.3-166.7,183.8c-158.8,157.6-169.3,166.7-186.5,166.7c-7.9,0-14.4,6.5-14.4,13.1
		c0,7.9-10.5,18.4-22.3,22.3c-13.1,5.3-34.2,18.4-47.3,30.2c-11.8,11.8-39.4,30.2-59.1,40.7c-19.7,10.5-38,22.3-42,26.3
		c-14.4,18.4-225.8,120.8-336.1,162.8c-93.2,35.4-277,82.7-359.7,93.2C2002.6,3005.3,1956.7,3006.6,1792.6,2988.2z M2173.4,1921.7
		c280.4-78,492-253.1,608.5-506.2c205.5-444.5,7.1-983.1-441.4-1195.7c-128.6-60.7-216.7-79-378.6-79
		c-157.9,0-249.1,18.2-367.5,73.9l-63.8,30.4l-232.9-61.8c-128.6-33.4-236.9-58.7-239.9-54.7c-4,3,6.1,52.6,21.3,109.3
		c94.2,352.3,93.1,349.3,81,378.6c-6.1,15.2-23.3,56.7-37.5,90.1c-49.6,119.5-61.8,181.2-61.8,333.1c0,206.5,39.5,336.1,152.9,507.2
		c127.6,193.4,332.1,330.1,571,383.7C1869.7,1950.1,2089.4,1945,2173.4,1921.7z"/>
	<path class="st1" d="M1791.8,1758.9c-38-8-108-34-155-56c-71-34-100-56-180-137c-54-54-111-124-133-161c-130-224-127-502,7-741
		l26-47l-35-128c-19-70-34-129-32-130c1-1,61,13,132,32l130,35l60-30c274-139,578-110,811,77c295,238,354,667,137,994
		c-122,184-334,294-588,304C1895.8,1772.9,1840.8,1769.9,1791.8,1758.9z M1722.8,1442.9c14-10,94-200,94-222c0-8-16-35-35-60
		c-19-26-35-52-35-60c0-21,82-127,131-169c54-47,137-95,176-103c26-5,33,0,72,50c27,35,51,56,63,56c35,0,217-91,224-112
		c12-37-7-100-43-139c-36-40-121-79-171-79c-82,0-250,68-356,144c-111,79-243,233-306,356c-35,67-39,180-11,241
		C1570.8,1441.9,1665.8,1488.9,1722.8,1442.9z"/>
</g>
</svg>
