<?xml version="1.0" encoding="utf-8"?>
<!-- Generator: Adobe Illustrator 23.0.1, SVG Export Plug-In . SVG Version: 6.00 Build 0)  -->
<svg version="1.1" id="Layer_1" xmlns="http://www.w3.org/2000/svg" xmlns:xlink="http://www.w3.org/1999/xlink" x="0px" y="0px"
	 viewBox="0 0 256 192.3" style="enable-background:new 0 0 256 192.3;" xml:space="preserve">
<style type="text/css">
	.st0{fill-rule:evenodd;clip-rule:evenodd;fill:url(#SVGID_1_);}
	.st1{fill:url(#SVGID_2_);}
	.st2{fill:url(#SVGID_3_);}
	.st3{fill:url(#SVGID_4_);}
	.st4{fill:url(#SVGID_5_);}
	.st5{fill:url(#SVGID_6_);}
	.st6{fill:url(#SVGID_7_);}
	.st7{fill:url(#SVGID_8_);stroke:url(#SVGID_9_);stroke-width:10;stroke-miterlimit:10;}
</style>
<g transform="translate(1.4065934065934016 1.4065934065934016) scale(2.81 2.81)">
	<linearGradient id="SVGID_1_" gradientUnits="userSpaceOnUse" x1="1.572823e-07" y1="33.75" x2="252.9" y2="33.75">
		<stop  offset="4.795011e-07" style="stop-color:#FFFF99"/>
		<stop  offset="1" style="stop-color:#FFFFFF"/>
	</linearGradient>
	<path class="st0" d="M87.2-0.5H2.8C1.2-0.5,0,0.7,0,2.3V55c0,1.5,1.2,2.8,2.8,2.8h37V65h-8.6c-0.8,0-1.5,0.7-1.5,1.5
		s0.7,1.5,1.5,1.5h27.6c0.8,0,1.5-0.7,1.5-1.5S59.6,65,58.8,65h-8.6v-7.2h37c1.5,0,2.8-1.2,2.8-2.8V2.3C90,0.7,88.8-0.5,87.2-0.5z
		 M87,54.8H3V2.5h84V54.8z"/>
</g>
<linearGradient id="SVGID_2_" gradientUnits="userSpaceOnUse" x1="85.1" y1="60.7" x2="132.3" y2="60.7">
	<stop  offset="4.795011e-07" style="stop-color:#FFFF99"/>
	<stop  offset="1" style="stop-color:#FFFFFF"/>
</linearGradient>
<circle class="st1" cx="108.7" cy="60.7" r="23.6"/>
<linearGradient id="SVGID_3_" gradientUnits="userSpaceOnUse" x1="136.0994" y1="76.825" x2="186.1424" y2="76.825">
	<stop  offset="4.795011e-07" style="stop-color:#FFFF99"/>
	<stop  offset="1" style="stop-color:#FFFFFF"/>
</linearGradient>
<path class="st2" d="M157.2,56.8l-20.5,35.5c-1.7,3,0.4,6.8,3.9,6.8h41c3.5,0,5.7-3.8,3.9-6.8L165,56.8
	C163.4,53.8,159,53.8,157.2,56.8z"/>
<linearGradient id="SVGID_4_" gradientUnits="userSpaceOnUse" x1="22.3" y1="31.3" x2="38.5" y2="31.3">
	<stop  offset="4.795011e-07" style="stop-color:#FFFF99"/>
	<stop  offset="1" style="stop-color:#FFFFFF"/>
</linearGradient>
<circle class="st3" cx="30.4" cy="31.3" r="8.1"/>
<linearGradient id="SVGID_5_" gradientUnits="userSpaceOnUse" x1="22.3" y1="61.4" x2="38.5" y2="61.4">
	<stop  offset="4.795011e-07" style="stop-color:#FFFF99"/>
	<stop  offset="1" style="stop-color:#FFFFFF"/>
</linearGradient>
<circle class="st4" cx="30.4" cy="61.4" r="8.1"/>
<linearGradient id="SVGID_6_" gradientUnits="userSpaceOnUse" x1="22.3" y1="91.4" x2="38.5" y2="91.4">
	<stop  offset="4.795011e-07" style="stop-color:#FFFF99"/>
	<stop  offset="1" style="stop-color:#FFFFFF"/>
</linearGradient>
<circle class="st5" cx="30.4" cy="91.4" r="8.1"/>
<linearGradient id="SVGID_7_" gradientUnits="userSpaceOnUse" x1="22.3" y1="121.5" x2="38.5" y2="121.5">
	<stop  offset="4.795011e-07" style="stop-color:#FFFF99"/>
	<stop  offset="1" style="stop-color:#FFFFFF"/>
</linearGradient>
<circle class="st6" cx="30.4" cy="121.5" r="8.1"/>
<linearGradient id="SVGID_8_" gradientUnits="userSpaceOnUse" x1="55" y1="75.65" x2="221.7" y2="75.65">
	<stop  offset="4.795011e-07" style="stop-color:#FFFF99"/>
	<stop  offset="1" style="stop-color:#FFFFFF"/>
</linearGradient>
<linearGradient id="SVGID_9_" gradientUnits="userSpaceOnUse" x1="50" y1="78.15" x2="221.7" y2="78.15">
	<stop  offset="4.795011e-07" style="stop-color:#FFFF99"/>
	<stop  offset="1" style="stop-color:#FFFFFF"/>
</linearGradient>
<path class="st7" d="M55,26.2v98.9 M55,125.1h166.7"/>
</svg>
