<?xml version="1.0" encoding="utf-8"?>
<!-- Generator: Adobe Illustrator 23.0.1, SVG Export Plug-In . SVG Version: 6.00 Build 0)  -->
<svg version="1.1" id="Layer_1" xmlns="http://www.w3.org/2000/svg" xmlns:xlink="http://www.w3.org/1999/xlink" x="0px" y="0px"
	 viewBox="0 0 256 180.3" style="enable-background:new 0 0 256 180.3;" xml:space="preserve">
<style type="text/css">
	.st0{fill:#FFFFFF;}
	.st1{fill:none;stroke:#FFFFFF;stroke-width:5;stroke-linecap:round;stroke-linejoin:round;stroke-miterlimit:10;}
</style>
<g transform="translate(1.4065934065934016 1.4065934065934016) scale(2.81 2.81)">
	<path class="st0" d="M51.5,63.3h35.8c1.5,0,2.8-1.3,2.8-3V4.8c0-2.5-1.9-4.5-4.2-4.5h-83c-1.6,0-2.8,1.4-2.8,3.1v56.9
		c0,1.6,1.2,3,2.8,3h11.5h24.2H51.5z M84.7,55.8H5.4c-1.5,0-2.8-1.2-2.8-2.8V5.2c0-1.4,1.1-2.5,2.5-2.5h79.6c1.5,0,2.8,1.2,2.8,2.8
		V53C87.5,54.5,86.2,55.8,84.7,55.8z"/>
</g>
<circle class="st0" cx="113.2" cy="65.1" r="24.5"/>
<path class="st0" d="M163.5,61.1l-21.3,36.9c-1.8,3.1,0.4,7.1,4,7.1h42.6c3.6,0,5.9-3.9,4-7.1l-21.3-36.9
	C170,57.9,165.4,57.9,163.5,61.1z"/>
<circle class="st0" cx="31.9" cy="34.6" r="8.4"/>
<circle class="st0" cx="31.9" cy="65.8" r="8.4"/>
<circle class="st0" cx="31.9" cy="97" r="8.4"/>
<circle class="st0" cx="31.9" cy="128.2" r="8.4"/>
<path class="st1" d="M57.4,29.3V132 M57.4,132h173.1"/>
</svg>
