<?xml version="1.0" encoding="utf-8"?>
<!-- Generator: Adobe Illustrator 23.0.1, SVG Export Plug-In . SVG Version: 6.00 Build 0)  -->
<svg version="1.1" id="Layer_1" xmlns="http://www.w3.org/2000/svg" xmlns:xlink="http://www.w3.org/1999/xlink" x="0px" y="0px"
	 viewBox="0 0 256 192.3" style="enable-background:new 0 0 256 192.3;" xml:space="preserve">
<style type="text/css">
	.st0{fill:#FFFFFF;}
	.st1{fill:none;stroke:#FFFFFF;stroke-width:5;stroke-linecap:round;stroke-linejoin:round;stroke-miterlimit:10;}
</style>
<g transform="translate(1.4065934065934016 1.4065934065934016) scale(2.81 2.81)">
	<path class="st0" d="M87.2-0.5H2.8C1.2-0.5,0,0.7,0,2.3V55c0,1.5,1.2,2.8,2.8,2.8h37V65h-8.6c-0.8,0-1.5,0.7-1.5,1.5
		s0.7,1.5,1.5,1.5h27.6c0.8,0,1.5-0.7,1.5-1.5S59.6,65,58.8,65h-8.6v-7.2h37c1.5,0,2.8-1.2,2.8-2.8V2.3C90,0.7,88.8-0.5,87.2-0.5z
		 M87,54.8H3V2.5h84V54.8z"/>
</g>
<circle class="st0" cx="108.7" cy="60.7" r="23.6"/>
<path class="st0" d="M157.2,56.8l-20.5,35.5c-1.7,3,0.4,6.8,3.9,6.8h41c3.5,0,5.7-3.8,3.9-6.8L165,56.8
	C163.4,53.8,159,53.8,157.2,56.8z"/>
<circle class="st0" cx="30.4" cy="31.3" r="8.1"/>
<circle class="st0" cx="30.4" cy="61.4" r="8.1"/>
<circle class="st0" cx="30.4" cy="91.4" r="8.1"/>
<circle class="st0" cx="30.4" cy="121.5" r="8.1"/>
<path class="st1" d="M55,26.2v98.9 M55,125.1h166.7"/>
</svg>
