<?xml version="1.0" encoding="utf-8"?>
<!-- Generator: Adobe Illustrator 23.0.1, SVG Export Plug-In . SVG Version: 6.00 Build 0)  -->
<svg version="1.1" id="Layer_1" xmlns="http://www.w3.org/2000/svg" xmlns:xlink="http://www.w3.org/1999/xlink" x="0px" y="0px"
	 viewBox="0 0 130.1 254.6" style="enable-background:new 0 0 130.1 254.6;" xml:space="preserve">
<style type="text/css">
	.st0{fill:#F9F4F4;}
	.st1{stroke:#F9F4F4;stroke-width:6;stroke-linecap:round;stroke-miterlimit:10;}
</style>
<g transform="translate(1.4065934065934016 1.4065934065934016) scale(2.81 2.81)">
	<path class="st0" d="M40.7,3.1c1.2,0,2.1,0.9,2.1,2.1V85c0,1.2-0.9,2.1-2.1,2.1H4.6c-1.2,0-2.1-0.9-2.1-2.1V5.1
		C2.5,3.9,3.4,3,4.6,3L40.7,3.1 M40.7,0.1H4.6c-2.8,0-5.1,2.3-5.1,5.1V85c0,2.8,2.3,5.1,5.1,5.1h36.1c2.8,0,5.1-2.3,5.1-5.1V5.1
		C45.8,2.3,43.5,0.1,40.7,0.1L40.7,0.1z"/>
	<path class="st0" d="M9.8,2c0,2.8,1.9,5.1,4.1,5.1h17.4c2.3,0,4.1-2.3,4.1-5.1C35.5,2,9.8,2,9.8,2z M25.5,4.6H16
		c-0.3,0-0.5-0.2-0.5-0.5s0.2-0.5,0.5-0.5h9.5c0.3,0,0.5,0.2,0.5,0.5S25.8,4.6,25.5,4.6z M28.6,4.7c-0.4,0-0.7-0.3-0.7-0.7
		s0.3-0.7,0.7-0.7s0.7,0.3,0.7,0.7S28.9,4.7,28.6,4.7z"/>
</g>
<circle class="st0" cx="33" cy="87.9" r="13.6"/>
<path class="st1" d="M56,88.1c14,0.3,52.4,0.1,52.4,0.1"/>
<circle class="st0" cx="32" cy="145.7" r="13.6"/>
<path class="st1" d="M56,99.1c14,0.3,31.1,0.1,31.1,0.1"/>
<path class="st1" d="M22.3,110.4c23,0.1,86.1,0,86.1,0"/>
<path class="st1" d="M56,135.6c14,0.3,52.4,0.1,52.4,0.1"/>
<path class="st1" d="M56,147.6c14,0.3,31.1,0.1,31.1,0.1"/>
<path class="st1" d="M56,158.6c8.1,0.3,30.4,0.1,30.4,0.1"/>
</svg>
