<?xml version="1.0" encoding="utf-8"?>
<!-- Generator: Adobe Illustrator 23.0.1, SVG Export Plug-In . SVG Version: 6.00 Build 0)  -->
<svg version="1.1" id="Layer_1" xmlns="http://www.w3.org/2000/svg" xmlns:xlink="http://www.w3.org/1999/xlink" x="0px" y="0px"
	 viewBox="0 0 133.8 254.6" style="enable-background:new 0 0 133.8 254.6;" xml:space="preserve">
<style type="text/css">
	.st0{fill:#FFFFFF;}
	.st1{fill:none;stroke:#FFFFFF;stroke-width:5;stroke-miterlimit:10;}
</style>
<g transform="translate(1.4065934065934016 1.4065934065934016) scale(2.81 2.81)">
	<path class="st0" d="M41.4,3.1c1.2,0,2.1,0.9,2.1,2.1V85c0,1.2-0.9,2.1-2.1,2.1H5.3c-1.2,0-2.1-0.9-2.1-2.1V5.1
		C3.2,3.9,4.1,3,5.3,3L41.4,3.1 M41.4,0.1H5.3c-2.8,0-5.1,2.3-5.1,5.1V85c0,2.8,2.3,5.1,5.1,5.1h36.1c2.8,0,5.1-2.3,5.1-5.1V5.1
		C46.5,2.3,44.2,0.1,41.4,0.1L41.4,0.1z"/>
	<path class="st0" d="M10.5,2c0,2.8,1.9,5.1,4.1,5.1H32c2.3,0,4.1-2.3,4.1-5.1C36.2,2,10.5,2,10.5,2z M26.2,4.6h-9.5
		c-0.3,0-0.5-0.2-0.5-0.5s0.2-0.5,0.5-0.5h9.5c0.3,0,0.5,0.2,0.5,0.5S26.5,4.6,26.2,4.6z M29.3,4.7c-0.4,0-0.7-0.3-0.7-0.7
		s0.3-0.7,0.7-0.7S30,3.6,30,4S29.6,4.7,29.3,4.7z"/>
</g>
<circle class="st0" cx="35.1" cy="87.9" r="13.6"/>
<path class="st1" d="M58.1,88.1c14,0.3,52.4,0.1,52.4,0.1"/>
<circle class="st0" cx="34.1" cy="145.7" r="13.6"/>
<path class="st1" d="M58.1,99.1c14,0.3,31.1,0.1,31.1,0.1"/>
<path class="st1" d="M24.4,110.4c23,0.1,86.1,0,86.1,0"/>
<path class="st1" d="M58.1,135.6c14,0.3,52.4,0.1,52.4,0.1"/>
<path class="st1" d="M58.1,147.6c14,0.3,31.1,0.1,31.1,0.1"/>
<path class="st1" d="M58.1,158.6c8.1,0.3,30.4,0.1,30.4,0.1"/>
</svg>
