<?xml version="1.0" encoding="utf-8"?>
<!-- Generator: Adobe Illustrator 23.0.1, SVG Export Plug-In . SVG Version: 6.00 Build 0)  -->
<svg version="1.1" id="Layer_1" xmlns="http://www.w3.org/2000/svg" xmlns:xlink="http://www.w3.org/1999/xlink" x="0px" y="0px"
	 viewBox="0 0 133.8 254.6" style="enable-background:new 0 0 133.8 254.6;" xml:space="preserve">
<style type="text/css">
	.st0{fill:url(#SVGID_1_);stroke:url(#SVGID_2_);stroke-miterlimit:10;}
	.st1{fill:url(#SVGID_3_);stroke:url(#SVGID_4_);stroke-miterlimit:10;}
	.st2{fill:url(#SVGID_5_);stroke:url(#SVGID_6_);stroke-miterlimit:10;}
	.st3{fill:url(#SVGID_7_);stroke:url(#SVGID_8_);stroke-width:6;stroke-linecap:round;stroke-miterlimit:10;}
	.st4{fill:url(#SVGID_9_);stroke:url(#SVGID_10_);stroke-miterlimit:10;}
	.st5{fill:url(#SVGID_11_);stroke:url(#SVGID_12_);stroke-width:6;stroke-linecap:round;stroke-miterlimit:10;}
	.st6{fill:url(#SVGID_13_);stroke:url(#SVGID_14_);stroke-width:6;stroke-linecap:round;stroke-miterlimit:10;}
	.st7{fill:url(#SVGID_15_);stroke:url(#SVGID_16_);stroke-width:6;stroke-linecap:round;stroke-miterlimit:10;}
	.st8{fill:url(#SVGID_17_);stroke:url(#SVGID_18_);stroke-width:6;stroke-linecap:round;stroke-miterlimit:10;}
	.st9{fill:url(#SVGID_19_);stroke:url(#SVGID_20_);stroke-width:6;stroke-linecap:round;stroke-miterlimit:10;}
</style>
<g transform="translate(1.4065934065934016 1.4065934065934016) scale(2.81 2.81)">
	
		<linearGradient id="SVGID_1_" gradientUnits="userSpaceOnUse" x1="-53.7742" y1="121.0781" x2="178.8229" y2="-88.0151" gradientTransform="matrix(2.81 0 0 -2.81 137.9617 352.5009)">
		<stop  offset="4.049120e-07" style="stop-color:#FFFF99"/>
		<stop  offset="1" style="stop-color:#FFFFFF"/>
	</linearGradient>
	
		<linearGradient id="SVGID_2_" gradientUnits="userSpaceOnUse" x1="-40.8013" y1="109.3953" x2="-40.3373" y2="109.3953" gradientTransform="matrix(2.81 0 0 -2.81 137.9617 352.5009)">
		<stop  offset="4.795011e-07" style="stop-color:#F7F703"/>
		<stop  offset="0.4743" style="stop-color:#FBFB7B"/>
		<stop  offset="1" style="stop-color:#FFFFFF"/>
	</linearGradient>
	<path class="st0" d="M41.4,3.1c1.2,0,2.1,0.9,2.1,2.1V85c0,1.2-0.9,2.1-2.1,2.1H5.3c-1.2,0-2.1-0.9-2.1-2.1V5.1
		C3.2,3.9,4.1,3,5.3,3L41.4,3.1 M41.4,0.1H5.3c-2.8,0-5.1,2.3-5.1,5.1V85c0,2.8,2.3,5.1,5.1,5.1h36.1c2.8,0,5.1-2.3,5.1-5.1V5.1
		C46.5,2.3,44.2,0.1,41.4,0.1L41.4,0.1z"/>
	<linearGradient id="SVGID_3_" gradientUnits="userSpaceOnUse" x1="10.5" y1="4.55" x2="82.4368" y2="4.55">
		<stop  offset="4.049120e-07" style="stop-color:#FFFF99"/>
		<stop  offset="1" style="stop-color:#FFFFFF"/>
	</linearGradient>
	
		<linearGradient id="SVGID_4_" gradientUnits="userSpaceOnUse" x1="-45.4082" y1="123.8259" x2="27.5286" y2="123.8259" gradientTransform="matrix(2.81 0 0 -2.81 137.9617 352.5009)">
		<stop  offset="4.795011e-07" style="stop-color:#F7F703"/>
		<stop  offset="0.4743" style="stop-color:#FBFB7B"/>
		<stop  offset="1" style="stop-color:#FFFFFF"/>
	</linearGradient>
	<path class="st1" d="M10.5,2c0,2.8,1.9,5.1,4.1,5.1H32c2.3,0,4.1-2.3,4.1-5.1C36.2,2,10.5,2,10.5,2z M26.2,4.6h-9.5
		c-0.3,0-0.5-0.2-0.5-0.5s0.2-0.5,0.5-0.5h9.5c0.3,0,0.5,0.2,0.5,0.5S26.5,4.6,26.2,4.6z M29.3,4.7c-0.4,0-0.7-0.3-0.7-0.7
		s0.3-0.7,0.7-0.7S30,3.6,30,4S29.6,4.7,29.3,4.7z"/>
</g>
<linearGradient id="SVGID_5_" gradientUnits="userSpaceOnUse" x1="26.3993" y1="174.6378" x2="48.1458" y2="158.2972" gradientTransform="matrix(1 0 0 -1 0 256)">
	<stop  offset="4.049120e-07" style="stop-color:#FFFF99"/>
	<stop  offset="1" style="stop-color:#FFFFFF"/>
</linearGradient>
<linearGradient id="SVGID_6_" gradientUnits="userSpaceOnUse" x1="21" y1="168.1" x2="49.2" y2="168.1" gradientTransform="matrix(1 0 0 -1 0 256)">
	<stop  offset="4.795011e-07" style="stop-color:#F7F703"/>
	<stop  offset="0.4743" style="stop-color:#FBFB7B"/>
	<stop  offset="1" style="stop-color:#FFFFFF"/>
</linearGradient>
<circle class="st2" cx="35.1" cy="87.9" r="13.6"/>
<linearGradient id="SVGID_7_" gradientUnits="userSpaceOnUse" x1="58.1" y1="88.1827" x2="110.5" y2="88.1827">
	<stop  offset="4.049120e-07" style="stop-color:#FFFF99"/>
	<stop  offset="1" style="stop-color:#FFFFFF"/>
</linearGradient>
<linearGradient id="SVGID_8_" gradientUnits="userSpaceOnUse" x1="55.1" y1="167.8174" x2="113.5" y2="167.8174" gradientTransform="matrix(1 0 0 -1 0 256)">
	<stop  offset="4.795011e-07" style="stop-color:#F7F703"/>
	<stop  offset="0.4743" style="stop-color:#FBFB7B"/>
	<stop  offset="1" style="stop-color:#FFFFFF"/>
</linearGradient>
<path class="st3" d="M58.1,88.1c14,0.3,52.4,0.1,52.4,0.1"/>
<linearGradient id="SVGID_9_" gradientUnits="userSpaceOnUse" x1="25.8413" y1="116.95" x2="47.0277" y2="99.8905" gradientTransform="matrix(1 0 0 -1 0 256)">
	<stop  offset="4.049120e-07" style="stop-color:#FFFF99"/>
	<stop  offset="1" style="stop-color:#FFFFFF"/>
</linearGradient>
<linearGradient id="SVGID_10_" gradientUnits="userSpaceOnUse" x1="20" y1="110.3" x2="48.2" y2="110.3" gradientTransform="matrix(1 0 0 -1 0 256)">
	<stop  offset="4.795011e-07" style="stop-color:#F7F703"/>
	<stop  offset="0.4743" style="stop-color:#FBFB7B"/>
	<stop  offset="1" style="stop-color:#FFFFFF"/>
</linearGradient>
<circle class="st4" cx="34.1" cy="145.7" r="13.6"/>
<linearGradient id="SVGID_11_" gradientUnits="userSpaceOnUse" x1="58.1" y1="99.1827" x2="89.2" y2="99.1827">
	<stop  offset="4.049120e-07" style="stop-color:#FFFF99"/>
	<stop  offset="1" style="stop-color:#FFFFFF"/>
</linearGradient>
<linearGradient id="SVGID_12_" gradientUnits="userSpaceOnUse" x1="55.1" y1="156.8174" x2="92.2" y2="156.8174" gradientTransform="matrix(1 0 0 -1 0 256)">
	<stop  offset="4.795011e-07" style="stop-color:#F7F703"/>
	<stop  offset="0.4743" style="stop-color:#FBFB7B"/>
	<stop  offset="1" style="stop-color:#FFFFFF"/>
</linearGradient>
<path class="st5" d="M58.1,99.1c14,0.3,31.1,0.1,31.1,0.1"/>
<linearGradient id="SVGID_13_" gradientUnits="userSpaceOnUse" x1="24.4" y1="110.4222" x2="110.5" y2="110.4222">
	<stop  offset="4.049120e-07" style="stop-color:#FFFF99"/>
	<stop  offset="1" style="stop-color:#FFFFFF"/>
</linearGradient>
<linearGradient id="SVGID_14_" gradientUnits="userSpaceOnUse" x1="21.4" y1="145.5778" x2="113.5" y2="145.5778" gradientTransform="matrix(1 0 0 -1 0 256)">
	<stop  offset="4.795011e-07" style="stop-color:#F7F703"/>
	<stop  offset="0.4743" style="stop-color:#FBFB7B"/>
	<stop  offset="1" style="stop-color:#FFFFFF"/>
</linearGradient>
<path class="st6" d="M24.4,110.4c23,0.1,86.1,0,86.1,0"/>
<linearGradient id="SVGID_15_" gradientUnits="userSpaceOnUse" x1="58.1" y1="135.6827" x2="110.5" y2="135.6827">
	<stop  offset="4.049120e-07" style="stop-color:#FFFF99"/>
	<stop  offset="1" style="stop-color:#FFFFFF"/>
</linearGradient>
<linearGradient id="SVGID_16_" gradientUnits="userSpaceOnUse" x1="55.1" y1="120.3173" x2="113.5" y2="120.3173" gradientTransform="matrix(1 0 0 -1 0 256)">
	<stop  offset="4.795011e-07" style="stop-color:#F7F703"/>
	<stop  offset="0.4743" style="stop-color:#FBFB7B"/>
	<stop  offset="1" style="stop-color:#FFFFFF"/>
</linearGradient>
<path class="st7" d="M58.1,135.6c14,0.3,52.4,0.1,52.4,0.1"/>
<linearGradient id="SVGID_17_" gradientUnits="userSpaceOnUse" x1="58.1" y1="147.6827" x2="89.2" y2="147.6827">
	<stop  offset="4.049120e-07" style="stop-color:#FFFF99"/>
	<stop  offset="1" style="stop-color:#FFFFFF"/>
</linearGradient>
<linearGradient id="SVGID_18_" gradientUnits="userSpaceOnUse" x1="55.1" y1="108.3173" x2="92.2" y2="108.3173" gradientTransform="matrix(1 0 0 -1 0 256)">
	<stop  offset="4.795011e-07" style="stop-color:#F7F703"/>
	<stop  offset="0.4743" style="stop-color:#FBFB7B"/>
	<stop  offset="1" style="stop-color:#FFFFFF"/>
</linearGradient>
<path class="st8" d="M58.1,147.6c14,0.3,31.1,0.1,31.1,0.1"/>
<linearGradient id="SVGID_19_" gradientUnits="userSpaceOnUse" x1="58.1" y1="158.6827" x2="88.5" y2="158.6827">
	<stop  offset="4.049120e-07" style="stop-color:#FFFF99"/>
	<stop  offset="1" style="stop-color:#FFFFFF"/>
</linearGradient>
<linearGradient id="SVGID_20_" gradientUnits="userSpaceOnUse" x1="55.1" y1="97.3173" x2="91.5" y2="97.3173" gradientTransform="matrix(1 0 0 -1 0 256)">
	<stop  offset="4.795011e-07" style="stop-color:#F7F703"/>
	<stop  offset="0.4743" style="stop-color:#FBFB7B"/>
	<stop  offset="1" style="stop-color:#FFFFFF"/>
</linearGradient>
<path class="st9" d="M58.1,158.6c8.1,0.3,30.4,0.1,30.4,0.1"/>
</svg>
