<?xml version="1.0" encoding="utf-8"?>
<!-- Generator: Adobe Illustrator 23.0.1, SVG Export Plug-In . SVG Version: 6.00 Build 0)  -->
<svg version="1.1" id="Layer_1" xmlns="http://www.w3.org/2000/svg" xmlns:xlink="http://www.w3.org/1999/xlink" x="0px" y="0px"
	 viewBox="0 0 256 192.3" style="enable-background:new 0 0 256 192.3;" xml:space="preserve">
<style type="text/css">
	.st0{fill:#FFFFFF;}
	.st1{fill:none;stroke:#FFFFFF;stroke-width:6;stroke-linecap:round;stroke-miterlimit:10;}
</style>
<g transform="translate(1.4065934065934016 1.4065934065934016) scale(2.81 2.81)">
	<path class="st0" d="M87.2-0.5H2.8C1.2-0.5,0,0.7,0,2.3V55c0,1.5,1.2,2.8,2.8,2.8h37V65h-8.6c-0.8,0-1.5,0.7-1.5,1.5
		s0.7,1.5,1.5,1.5h27.6c0.8,0,1.5-0.7,1.5-1.5S59.6,65,58.8,65h-8.6v-7.2h37c1.5,0,2.8-1.2,2.8-2.8V2.3C90,0.7,88.8-0.5,87.2-0.5z
		 M87,54.8H3V2.5h84V54.8z"/>
</g>
<path class="st0" d="M38.7,99.6h39.8c3.3,0,5.9,2.7,5.9,5.9v30c0,3.3-2.7,5.9-5.9,5.9H38.7c-3.3,0-5.9-2.7-5.9-5.9v-30
	C32.8,102.2,35.4,99.6,38.7,99.6z"/>
<circle class="st0" cx="52.8" cy="46.8" r="20.8"/>
<path class="st0" d="M106.6,99.6h39.8c3.3,0,5.9,2.7,5.9,5.9v30c0,3.3-2.7,5.9-5.9,5.9h-39.8c-3.3,0-5.9-2.7-5.9-5.9v-30
	C100.6,102.2,103.3,99.6,106.6,99.6z"/>
<path class="st0" d="M174.4,99.6h39.8c3.3,0,5.9,2.7,5.9,5.9v30c0,3.3-2.7,5.9-5.9,5.9h-39.8c-3.3,0-5.9-2.7-5.9-5.9v-30
	C168.5,102.2,171.2,99.6,174.4,99.6z"/>
<line class="st1" x1="39.5" y1="81.9" x2="213.4" y2="81.9"/>
<line class="st1" x1="90.7" y1="56.9" x2="189.6" y2="56.9"/>
<line class="st1" x1="90.7" y1="32" x2="211.4" y2="32"/>
</svg>
