<?xml version="1.0" encoding="utf-8"?>
<!-- Generator: Adobe Illustrator 23.0.1, SVG Export Plug-In . SVG Version: 6.00 Build 0)  -->
<svg version="1.1" id="Layer_1" xmlns="http://www.w3.org/2000/svg" xmlns:xlink="http://www.w3.org/1999/xlink" x="0px" y="0px"
	 viewBox="0 0 256 192.3" style="enable-background:new 0 0 256 192.3;" xml:space="preserve">
<style type="text/css">
	.st0{fill-rule:evenodd;clip-rule:evenodd;fill:url(#SVGID_1_);}
	.st1{fill:url(#SVGID_2_);}
	.st2{fill:url(#SVGID_3_);}
	.st3{fill:url(#SVGID_4_);}
	.st4{fill:url(#SVGID_5_);}
	.st5{fill:url(#SVGID_6_);stroke:url(#SVGID_7_);stroke-width:10;stroke-linecap:round;stroke-miterlimit:10;}
	.st6{fill:url(#SVGID_8_);stroke:url(#SVGID_9_);stroke-width:10;stroke-linecap:round;stroke-miterlimit:10;}
	.st7{fill:url(#SVGID_10_);stroke:url(#SVGID_11_);stroke-width:10;stroke-linecap:round;stroke-miterlimit:10;}
</style>
<g transform="translate(1.4065934065934016 1.4065934065934016) scale(2.81 2.81)">
	<linearGradient id="SVGID_1_" gradientUnits="userSpaceOnUse" x1="1.572823e-07" y1="33.75" x2="252.9" y2="33.75">
		<stop  offset="0" style="stop-color:#FFFF99"/>
		<stop  offset="1" style="stop-color:#FFFFFF"/>
	</linearGradient>
	<path class="st0" d="M87.2-0.5H2.8C1.2-0.5,0,0.7,0,2.3V55c0,1.5,1.2,2.8,2.8,2.8h37V65h-8.6c-0.8,0-1.5,0.7-1.5,1.5
		s0.7,1.5,1.5,1.5h27.6c0.8,0,1.5-0.7,1.5-1.5S59.6,65,58.8,65h-8.6v-7.2h37c1.5,0,2.8-1.2,2.8-2.8V2.3C90,0.7,88.8-0.5,87.2-0.5z
		 M87,54.8H3V2.5h84V54.8z"/>
</g>
<linearGradient id="SVGID_2_" gradientUnits="userSpaceOnUse" x1="-55.4593" y1="59.4711" x2="293.8173" y2="246.3647">
	<stop  offset="0" style="stop-color:#FFFF99"/>
	<stop  offset="1" style="stop-color:#FFFFFF"/>
</linearGradient>
<path class="st1" d="M38.7,99.6h39.8c3.3,0,5.9,2.7,5.9,5.9v30c0,3.3-2.7,5.9-5.9,5.9H38.7c-3.3,0-5.9-2.7-5.9-5.9v-30
	C32.8,102.2,35.4,99.6,38.7,99.6z"/>
<linearGradient id="SVGID_3_" gradientUnits="userSpaceOnUse" x1="-26.0911" y1="4.5863" x2="323.1855" y2="191.48">
	<stop  offset="0" style="stop-color:#FFFF99"/>
	<stop  offset="1" style="stop-color:#FFFFFF"/>
</linearGradient>
<circle class="st2" cx="52.8" cy="46.8" r="20.8"/>
<linearGradient id="SVGID_4_" gradientUnits="userSpaceOnUse" x1="-40.3541" y1="31.2418" x2="308.9225" y2="218.1354">
	<stop  offset="0" style="stop-color:#FFFF99"/>
	<stop  offset="1" style="stop-color:#FFFFFF"/>
</linearGradient>
<path class="st3" d="M106.6,99.6h39.8c3.3,0,5.9,2.7,5.9,5.9v30c0,3.3-2.7,5.9-5.9,5.9h-39.8c-3.3,0-5.9-2.7-5.9-5.9v-30
	C100.6,102.2,103.3,99.6,106.6,99.6z"/>
<linearGradient id="SVGID_5_" gradientUnits="userSpaceOnUse" x1="-25.2489" y1="3.0124" x2="324.0277" y2="189.906">
	<stop  offset="0" style="stop-color:#FFFF99"/>
	<stop  offset="1" style="stop-color:#FFFFFF"/>
</linearGradient>
<path class="st4" d="M174.4,99.6h39.8c3.3,0,5.9,2.7,5.9,5.9v30c0,3.3-2.7,5.9-5.9,5.9h-39.8c-3.3,0-5.9-2.7-5.9-5.9v-30
	C168.5,102.2,171.2,99.6,174.4,99.6z"/>
<linearGradient id="SVGID_6_" gradientUnits="userSpaceOnUse" x1="-24.3047" y1="1.2478" x2="324.9719" y2="188.1414">
	<stop  offset="8.547480e-02" style="stop-color:#FFFF99"/>
	<stop  offset="1" style="stop-color:#FFFFFF"/>
</linearGradient>
<linearGradient id="SVGID_7_" gradientUnits="userSpaceOnUse" x1="34.4681" y1="81.9131" x2="218.4255" y2="81.9131">
	<stop  offset="8.547480e-02" style="stop-color:#FFFF99"/>
	<stop  offset="1" style="stop-color:#FFFFFF"/>
</linearGradient>
<line class="st5" x1="39.5" y1="81.9" x2="213.4" y2="81.9"/>
<linearGradient id="SVGID_8_" gradientUnits="userSpaceOnUse" x1="-10.8712" y1="-23.8574" x2="338.4054" y2="163.0362">
	<stop  offset="8.547480e-02" style="stop-color:#FFFF99"/>
	<stop  offset="1" style="stop-color:#FFFFFF"/>
</linearGradient>
<linearGradient id="SVGID_9_" gradientUnits="userSpaceOnUse" x1="85.6809" y1="56.9459" x2="194.5957" y2="56.9459">
	<stop  offset="8.547480e-02" style="stop-color:#FFFF99"/>
	<stop  offset="1" style="stop-color:#FFFFFF"/>
</linearGradient>
<line class="st6" x1="90.7" y1="56.9" x2="189.6" y2="56.9"/>
<linearGradient id="SVGID_10_" gradientUnits="userSpaceOnUse" x1="1.9395" y1="-47.7988" x2="351.2161" y2="139.0948">
	<stop  offset="8.547480e-02" style="stop-color:#FFFF99"/>
	<stop  offset="1" style="stop-color:#FFFFFF"/>
</linearGradient>
<linearGradient id="SVGID_11_" gradientUnits="userSpaceOnUse" x1="85.6809" y1="31.9787" x2="216.383" y2="31.9787">
	<stop  offset="8.547480e-02" style="stop-color:#FFFF99"/>
	<stop  offset="1" style="stop-color:#FFFFFF"/>
</linearGradient>
<line class="st7" x1="90.7" y1="32" x2="211.4" y2="32"/>
</svg>
