<?xml version="1.0" encoding="utf-8"?>
<!-- Generator: Adobe Illustrator 23.0.1, SVG Export Plug-In . SVG Version: 6.00 Build 0)  -->
<svg version="1.1" id="Layer_1" xmlns="http://www.w3.org/2000/svg" xmlns:xlink="http://www.w3.org/1999/xlink" x="0px" y="0px"
	 viewBox="0 0 256 192.3" style="enable-background:new 0 0 256 192.3;" xml:space="preserve">
<style type="text/css">
	.st0{fill-rule:evenodd;clip-rule:evenodd;fill:#F9F4F4;}
	.st1{stroke:#F9F4F4;stroke-width:10;stroke-linecap:round;stroke-miterlimit:10;}
	.st2{stroke:#F9F4F4;stroke-width:25;stroke-linecap:round;stroke-linejoin:round;stroke-miterlimit:10;}
	.st3{stroke:#F9F4F4;stroke-width:23;stroke-linecap:round;stroke-linejoin:round;stroke-miterlimit:10;}
	.st4{fill:#F9F4F4;}
</style>
<g transform="translate(1.4065934065934016 1.4065934065934016) scale(2.81 2.81)">
	<path class="st0" d="M87.2-0.5H2.8C1.2-0.5,0,0.7,0,2.3V55c0,1.5,1.2,2.8,2.8,2.8h37v7.2h-8.6c-0.8,0-1.5,0.7-1.5,1.5
		s0.7,1.5,1.5,1.5h27.6c0.8,0,1.5-0.7,1.5-1.5s-0.7-1.5-1.5-1.5h-8.6v-7.2h37c1.5,0,2.8-1.2,2.8-2.8V2.3C90,0.7,88.8-0.5,87.2-0.5z
		 M87,54.8H3V2.5h84V54.8z"/>
</g>
<line class="st1" x1="35.7" y1="81.1" x2="215.5" y2="82.7"/>
<line class="st1" x1="87.9" y1="57.1" x2="157.9" y2="57.1"/>
<line class="st1" x1="86.8" y1="34.1" x2="214.8" y2="36.1"/>
<rect x="45.2" y="113.4" class="st2" width="20.8" height="9"/>
<rect x="99.6" y="113.4" class="st3" width="20.8" height="9"/>
<rect x="154.4" y="113.4" class="st2" width="20.8" height="9"/>
<circle class="st4" cx="52.8" cy="46.8" r="20.8"/>
</svg>
