<?xml version="1.0" encoding="utf-8"?>
<!-- Generator: Adobe Illustrator 23.0.1, SVG Export Plug-In . SVG Version: 6.00 Build 0)  -->
<svg version="1.1" id="Layer_1" xmlns="http://www.w3.org/2000/svg" xmlns:xlink="http://www.w3.org/1999/xlink" x="0px" y="0px"
	 viewBox="0 0 50 50" style="enable-background:new 0 0 50 50;" xml:space="preserve">
<style type="text/css">
	.st0{fill:#FFFF00;}
</style>
<path class="st0" d="M25,2C12.3,2,2,12.3,2,25s10.3,23,23,23s23-10.3,23-23S37.7,2,25,2z M18,35h-4V20h4V35z M16,17
	c-1.1,0-2-0.9-2-2s0.9-2,2-2s2,0.9,2,2S17.1,17,16,17z M37,35h-4v-5v-2.5c0-1.9-1.6-3.5-3.5-3.5S26,25.6,26,27.5V35h-4V20h4v1.8
	c1.2-1.1,2.8-1.8,4.5-1.8c3.6,0,6.5,2.9,6.5,6.5V35z"/>
</svg>
